<svg width="118" height="118" viewBox="0 0 118 118" fill="none" xmlns="http://www.w3.org/2000/svg">
<path d="M117.421 59.0301C117.421 75.2421 110.855 89.9111 100.225 100.532C89.612 111.153 74.935 117.72 58.731 117.72C26.323 117.72 0.0419922 91.4471 0.0419922 59.0311C0.0419922 42.8271 6.60799 28.1581 17.238 17.5371C27.851 6.9161 42.528 0.350098 58.732 0.350098C74.936 0.350098 89.613 6.9161 100.226 17.5371C110.855 28.1571 117.421 42.8251 117.421 59.0301Z" fill="url(#paint0_linear_373_23)"/>
<path d="M93.024 24.7201L50.122 94.1761C49.257 95.5771 47.244 95.6441 46.287 94.3051L24.478 63.7781C23.693 62.6791 24.964 61.2881 26.129 61.9711L46.783 74.0831L91.015 23.2401C92.025 22.0811 93.832 23.4121 93.024 24.7201Z" fill="white"/>
<defs>
<linearGradient id="paint0_linear_373_23" x1="0.0417922" y1="59.0339" x2="117.421" y2="59.0339" gradientUnits="userSpaceOnUse">
<stop stop-color="#4FC646"/>
<stop offset="1" stop-color="#3FB06B"/>
</linearGradient>
</defs>
</svg>
