<svg width="500" height="833" viewBox="0 0 500 833" fill="none" xmlns="http://www.w3.org/2000/svg">
<rect y="0.101318" width="500" height="332" fill="#AAEAEA"/>
<path d="M234.023 312.067C234.023 301.019 226.206 292.064 216.562 292.064C213.124 292.064 209.929 293.219 207.226 295.184C206.441 289.414 202.099 284.994 196.842 284.994C194.195 284.994 191.783 286.122 189.934 287.971C189.954 287.605 189.982 287.241 189.982 286.87C189.982 277.598 183.422 270.083 175.327 270.083C168.507 270.083 162.792 275.428 161.157 282.658C158.049 277.139 152.646 273.477 146.487 273.477C136.843 273.477 129.027 282.432 129.027 293.479C129.027 294.103 129.059 294.717 129.108 295.325C126.374 293.289 123.118 292.095 119.615 292.095C109.971 292.095 102.155 301.051 102.155 312.098C102.155 322.692 109.35 331.34 118.444 332.034C118.444 332.041 118.442 332.049 118.442 332.056H118.844C119.102 332.07 119.356 332.101 119.616 332.101C119.877 332.101 120.13 332.07 120.388 332.056H216.308C216.395 332.058 216.479 332.071 216.565 332.071C216.651 332.071 216.735 332.058 216.821 332.056H217.251C217.251 332.047 217.249 332.04 217.249 332.031C226.571 331.615 234.023 322.85 234.023 312.067Z" fill="white"/>
<path d="M478.501 52.7461C478.501 43.869 471.313 36.6733 462.444 36.6733C459.283 36.6733 456.344 37.6012 453.858 39.1802C453.136 34.5443 449.143 30.9927 444.309 30.9927C441.874 30.9927 439.656 31.899 437.955 33.3841C437.974 33.0904 438 32.798 438 32.4995C438 25.0498 431.967 19.0106 424.523 19.0106C418.25 19.0106 412.994 23.3059 411.491 29.1153C408.633 24.6803 403.664 21.7378 398 21.7378C389.131 21.7378 381.943 28.9335 381.943 37.8106C381.943 38.3113 381.973 38.8047 382.017 39.2933C379.503 37.6578 376.509 36.6986 373.287 36.6986C364.419 36.6986 357.23 43.8943 357.23 52.7714C357.23 61.2838 363.847 68.2328 372.21 68.7901C372.21 68.7961 372.209 68.8021 372.209 68.8081H372.578C372.815 68.8189 373.049 68.8442 373.288 68.8442C373.528 68.8442 373.761 68.8189 373.998 68.8081H462.211C462.29 68.8093 462.367 68.8201 462.447 68.8201C462.526 68.8201 462.603 68.8093 462.682 68.8081H463.077C463.077 68.8009 463.076 68.7949 463.076 68.7877C471.649 68.4531 478.501 61.4102 478.501 52.7461Z" fill="white"/>
<path d="M415.486 228.23C415.486 219.353 408.298 212.158 399.429 212.158C396.267 212.158 393.328 213.085 390.843 214.664C390.121 210.029 386.128 206.477 381.293 206.477C378.859 206.477 376.64 207.383 374.94 208.868C374.959 208.575 374.984 208.282 374.984 207.984C374.984 200.534 368.951 194.495 361.508 194.495C355.235 194.495 349.979 198.79 348.476 204.6C345.618 200.165 340.648 197.222 334.985 197.222C326.116 197.222 318.928 204.418 318.928 213.295C318.928 213.796 318.958 214.289 319.002 214.778C316.488 213.142 313.494 212.183 310.272 212.183C301.403 212.183 294.215 219.379 294.215 228.256C294.215 236.768 300.832 243.717 309.195 244.274C309.195 244.28 309.194 244.286 309.194 244.292H309.563C309.8 244.303 310.034 244.328 310.273 244.328C310.513 244.328 310.746 244.303 310.983 244.292H399.195C399.275 244.294 399.352 244.304 399.431 244.304C399.511 244.304 399.588 244.294 399.667 244.292H400.062C400.062 244.285 400.061 244.279 400.061 244.272C408.633 243.937 415.486 236.894 415.486 228.23Z" fill="white"/>
<path d="M138.713 167.675C138.713 160.313 132.752 154.346 125.397 154.346C122.776 154.346 120.338 155.115 118.277 156.425C117.679 152.58 114.367 149.635 110.358 149.635C108.339 149.635 106.5 150.387 105.089 151.618C105.105 151.375 105.126 151.132 105.126 150.885C105.126 144.707 100.123 139.699 93.9502 139.699C88.7484 139.699 84.39 143.261 83.1434 148.078C80.7731 144.4 76.6522 141.96 71.9554 141.96C64.6009 141.96 58.6396 147.927 58.6396 155.289C58.6396 155.704 58.6646 156.113 58.7015 156.519C56.6166 155.162 54.1335 154.367 51.4617 154.367C44.1072 154.367 38.1459 160.334 38.1459 167.696C38.1459 174.755 43.6331 180.517 50.5685 180.98C50.5685 180.985 50.5675 180.99 50.5675 180.995H50.8739C51.0705 181.003 51.2641 181.024 51.4627 181.024C51.6613 181.024 51.8549 181.003 52.0515 180.995H125.204C125.27 180.996 125.334 181.004 125.399 181.004C125.465 181.004 125.529 180.996 125.595 180.995H125.922C125.922 180.989 125.921 180.984 125.921 180.978C133.03 180.7 138.713 174.86 138.713 167.675Z" fill="white"/>
<path d="M500 332.101H0V832.101H500V332.101Z" fill="#AAEAEA"/>
<mask id="mask0_101_11" style="mask-type:luminance" maskUnits="userSpaceOnUse" x="0" y="332" width="500" height="501">
<path d="M500 332.101H0V832.101H500V332.101Z" fill="white"/>
</mask>
<g mask="url(#mask0_101_11)">
<path d="M523.553 440.605C523.553 431.969 516.559 424.968 507.931 424.968C504.855 424.968 501.995 425.87 499.577 427.407C498.875 422.896 494.989 419.442 490.286 419.442C487.918 419.442 485.76 420.323 484.105 421.768C484.124 421.482 484.148 421.198 484.148 420.907C484.148 413.659 478.278 407.783 471.036 407.783C464.934 407.783 459.82 411.962 458.358 417.613C455.577 413.299 450.743 410.435 445.232 410.435C436.604 410.435 429.61 417.436 429.61 426.072C429.61 426.559 429.639 427.039 429.683 427.514C427.236 425.923 424.324 424.99 421.189 424.99C412.561 424.99 405.567 431.991 405.567 440.627C405.567 448.909 412.004 455.669 420.141 456.211C420.141 456.217 420.14 456.223 420.14 456.229H420.499C420.73 456.239 420.956 456.264 421.19 456.264C421.423 456.264 421.65 456.239 421.881 456.229H507.702C507.779 456.23 507.854 456.24 507.931 456.24C508.009 456.24 508.083 456.23 508.16 456.229H508.544C508.544 456.222 508.543 456.216 508.543 456.209C516.885 455.886 523.553 449.034 523.553 440.605Z" fill="white"/>
</g>
<mask id="mask1_101_11" style="mask-type:luminance" maskUnits="userSpaceOnUse" x="0" y="332" width="500" height="501">
<path d="M500 332.101H0V832.101H500V332.101Z" fill="white"/>
</mask>
<g mask="url(#mask1_101_11)">
<path d="M75.333 398.188C75.333 390.812 69.36 384.833 61.991 384.833C59.364 384.833 56.922 385.604 54.857 386.916C54.257 383.064 50.939 380.113 46.922 380.113C44.899 380.113 43.056 380.866 41.643 382.1C41.659 381.856 41.68 381.613 41.68 381.365C41.68 375.175 36.667 370.157 30.482 370.157C25.27 370.157 20.903 373.726 19.654 378.553C17.279 374.868 13.15 372.423 8.44399 372.423C1.07499 372.423 -4.89801 378.402 -4.89801 385.778C-4.89801 386.194 -4.87301 386.604 -4.83601 387.01C-6.92501 385.651 -9.41301 384.854 -12.09 384.854C-19.459 384.854 -25.432 390.833 -25.432 398.209C-25.432 405.282 -19.934 411.056 -12.985 411.519C-12.985 411.524 -12.986 411.529 -12.986 411.534H-12.679C-12.482 411.543 -12.288 411.564 -12.089 411.564C-11.89 411.564 -11.696 411.543 -11.499 411.534H61.797C61.863 411.535 61.927 411.544 61.993 411.544C62.059 411.544 62.123 411.535 62.189 411.534H62.517C62.517 411.528 62.516 411.523 62.516 411.517C69.639 411.239 75.333 405.387 75.333 398.188Z" fill="white"/>
</g>
<path d="M500 710.101H0V832.101H500V710.101Z" fill="#F2DDC2"/>
<path d="M500 670.768H0V710.101H500V670.768Z" fill="#27BAB6"/>
<path d="M500 710.101H0V718.768H500V710.101Z" fill="white"/>
<path d="M164.066 482.496C164.066 484.74 162.247 486.559 160.003 486.559H148.221C145.977 486.559 144.158 484.74 144.158 482.496V460.557C144.158 458.313 145.977 456.494 148.221 456.494H160.003C162.247 456.494 164.066 458.313 164.066 460.557V482.496Z" fill="#833F0A"/>
<path d="M160.448 476.508C160.448 477.936 159.29 479.094 157.862 479.094H150.363C148.935 479.094 147.777 477.936 147.777 476.508V462.543C147.777 461.115 148.935 459.957 150.363 459.957H157.862C159.29 459.957 160.448 461.115 160.448 462.543V476.508Z" fill="#B0550C"/>
<path d="M349.066 482.496C349.066 484.74 347.247 486.559 345.003 486.559H333.221C330.977 486.559 329.158 484.74 329.158 482.496V460.557C329.158 458.313 330.977 456.494 333.221 456.494H345.003C347.247 456.494 349.066 458.313 349.066 460.557V482.496Z" fill="#833F0A"/>
<path d="M345.448 476.508C345.448 477.936 344.29 479.094 342.862 479.094H335.362C333.934 479.094 332.776 477.936 332.776 476.508V462.543C332.776 461.115 333.934 459.957 335.362 459.957H342.862C344.29 459.957 345.448 461.115 345.448 462.543V476.508Z" fill="#B0550C"/>
<path d="M392.988 634.696C392.988 643.94 385.494 651.434 376.249 651.434H122.08C112.836 651.434 105.342 643.94 105.342 634.696V486.961C105.342 477.717 112.836 470.223 122.08 470.223H376.25C385.494 470.223 392.989 477.717 392.989 486.961V634.696H392.988Z" fill="#E88538"/>
<path d="M381.247 633.096C381.247 641.616 374.34 648.524 365.819 648.524H131.555C123.035 648.524 116.127 641.617 116.127 633.096V496.93C116.127 488.41 123.034 481.502 131.555 481.502H365.82C374.34 481.502 381.248 488.409 381.248 496.93L381.247 633.096Z" fill="#52C8C5"/>
<path d="M393.119 629.684H104.931L92.333 653.753L86.484 658.53L251.299 671.266L411.042 658.601L393.119 629.684Z" fill="#833F0A"/>
<path d="M248.414 768.99C362.01 768.99 454.097 758.622 454.097 745.832C454.097 733.042 362.01 722.674 248.414 722.674C134.818 722.674 42.731 733.042 42.731 745.832C42.731 758.622 134.818 768.99 248.414 768.99Z" fill="#D7BBA3"/>
<path d="M465.424 568.296C465.424 562.457 460.695 557.724 454.862 557.724C452.783 557.724 450.849 558.334 449.214 559.373C448.739 556.324 446.112 553.988 442.933 553.988C441.332 553.988 439.873 554.584 438.754 555.561C438.767 555.368 438.783 555.176 438.783 554.979C438.783 550.079 434.814 546.106 429.919 546.106C425.793 546.106 422.336 548.932 421.347 552.752C419.467 549.835 416.199 547.899 412.473 547.899C406.64 547.899 401.911 552.632 401.911 558.471C401.911 558.8 401.931 559.124 401.96 559.446C400.306 558.37 398.337 557.739 396.217 557.739C390.384 557.739 385.655 562.472 385.655 568.311C385.655 573.91 390.007 578.481 395.508 578.847C395.508 578.851 395.507 578.855 395.507 578.859H395.75C395.906 578.866 396.059 578.883 396.217 578.883C396.375 578.883 396.528 578.866 396.684 578.859H454.706C454.758 578.86 454.809 578.867 454.861 578.867C454.914 578.867 454.964 578.86 455.016 578.859H455.276C455.276 578.854 455.275 578.85 455.275 578.846C460.917 578.628 465.424 573.995 465.424 568.296Z" fill="white"/>
<path d="M122.343 502.652C122.343 496.228 117.14 491.02 110.722 491.02C108.434 491.02 106.306 491.691 104.508 492.834C103.986 489.479 101.095 486.909 97.597 486.909C95.8349 486.909 94.2299 487.565 92.999 488.64C93.013 488.427 93.0309 488.216 93.0309 488C93.0309 482.608 88.664 478.237 83.277 478.237C78.7379 478.237 74.933 481.346 73.846 485.55C71.777 482.341 68.181 480.211 64.082 480.211C57.664 480.211 52.4609 485.419 52.4609 491.843C52.4609 492.205 52.483 492.562 52.5149 492.916C50.695 491.733 48.5279 491.038 46.1959 491.038C39.7779 491.038 34.575 496.246 34.575 502.67C34.575 508.831 39.363 513.859 45.416 514.263C45.416 514.267 45.415 514.272 45.415 514.276H45.6819C45.8539 514.284 46.0219 514.302 46.1959 514.302C46.3699 514.302 46.5379 514.284 46.7099 514.276H110.551C110.609 514.277 110.664 514.285 110.722 514.285C110.78 514.285 110.835 514.277 110.893 514.276H111.179C111.179 514.271 111.178 514.266 111.178 514.262C117.383 514.019 122.343 508.922 122.343 502.652Z" fill="white"/>
<path d="M314.184 503.799C314.184 500.677 311.656 498.146 308.537 498.146C307.425 498.146 306.391 498.472 305.517 499.028C305.263 497.397 303.858 496.148 302.158 496.148C301.302 496.148 300.522 496.467 299.924 496.989C299.931 496.886 299.94 496.783 299.94 496.678C299.94 494.058 297.818 491.934 295.2 491.934C292.994 491.934 291.145 493.445 290.617 495.488C289.612 493.928 287.864 492.893 285.872 492.893C282.753 492.893 280.225 495.424 280.225 498.546C280.225 498.722 280.236 498.896 280.251 499.067C279.367 498.492 278.314 498.154 277.18 498.154C274.061 498.154 271.533 500.685 271.533 503.807C271.533 506.801 273.86 509.245 276.801 509.441C276.801 509.443 276.801 509.445 276.801 509.448H276.931C277.014 509.452 277.096 509.461 277.181 509.461C277.265 509.461 277.347 509.452 277.431 509.448H308.456C308.484 509.449 308.511 509.452 308.539 509.452C308.567 509.452 308.594 509.448 308.622 509.448H308.761C308.761 509.446 308.761 509.443 308.761 509.441C311.774 509.323 314.184 506.846 314.184 503.799Z" fill="white"/>
<path d="M414.215 618.803C406.475 639.309 386.279 649.593 386.279 649.593L391.719 658.059C391.719 658.059 416.269 639.152 418.462 621.71C418.622 620.437 414.668 617.602 414.215 618.803Z" fill="#A26A57"/>
<path d="M430.806 643.955C430.806 643.955 434.597 634.943 427.813 625.117C427.32 624.403 425.975 622.495 425.447 621.972L442.508 631.174C442.508 631.174 437.571 621.007 428.778 615.948C427.547 615.24 425.682 614.931 423.859 615.602L441.045 610.395C441.045 610.395 437.095 604.943 426.311 605.922C422.495 606.268 419.744 608.182 417.81 610.384C417.234 608.724 416.356 606.89 415.052 604.913C409.658 596.732 396.682 597.869 396.682 597.869L413.422 613.102C412.903 612.684 406.481 609.196 404.049 608.165C394.003 603.909 385.415 613.376 385.415 613.376L406.444 616.083C403.876 616.98 401.749 617.158 397.409 619.76C388.913 624.851 390.432 630.538 390.432 630.538L416.514 619.571L430.806 643.955Z" fill="#1D7759"/>
<path d="M60.99 624.703C85.113 632.281 97.728 656.35 97.728 656.35L107.25 650.057C107.25 650.057 83.681 620.968 62.209 618.929C60.76 618.79 59.601 624.266 60.99 624.703Z" fill="#A26A57"/>
<path d="M88.96 605.205C88.96 605.205 78.684 601.037 67.638 608.874C66.835 609.444 64.691 610.997 64.105 611.603L74.294 592.119C74.294 592.119 62.834 597.866 57.225 607.913C56.44 609.32 56.117 611.439 56.904 613.498L50.749 594.082C50.749 594.082 44.623 598.642 45.89 610.858C46.338 615.181 48.549 618.273 51.074 620.435C49.2 621.113 47.133 622.135 44.91 623.643C35.71 629.88 37.189 644.58 37.189 644.58L54.222 625.372C53.756 625.967 49.892 633.3 48.759 636.074C44.078 647.53 54.94 657.132 54.94 657.132L57.704 633.242C58.758 636.141 58.992 638.551 62.006 643.436C67.904 652.997 74.332 651.193 74.332 651.193L61.513 621.771L88.96 605.205Z" fill="#1D7759"/>
<path d="M207.838 532.365C183.472 532.365 162.91 579.721 156.421 623.562H259.254C252.766 579.721 232.204 532.365 207.838 532.365Z" fill="#396672"/>
<mask id="mask2_101_11" style="mask-type:luminance" maskUnits="userSpaceOnUse" x="156" y="532" width="104" height="92">
<path d="M207.838 532.365C183.472 532.365 162.91 579.721 156.421 623.562H259.254C252.766 579.721 232.204 532.365 207.838 532.365Z" fill="white"/>
</mask>
<g mask="url(#mask2_101_11)">
<path d="M219.692 522.818C217.079 522.818 214.749 524.264 213.221 526.524C213.163 522.916 210.714 520.012 207.696 520.012C204.641 520.012 202.165 522.986 202.165 526.654V527.016C200.653 524.478 198.184 522.819 195.388 522.819C190.785 522.819 187.053 527.301 187.053 532.829V539.565C187.053 545.093 190.785 549.575 195.388 549.575C198.269 549.575 200.808 547.819 202.305 545.15C202.862 548.11 205.062 550.323 207.695 550.323C210.216 550.323 212.34 548.295 213.005 545.524C214.524 547.978 216.949 549.575 219.691 549.575C224.294 549.575 228.026 545.093 228.026 539.565V532.829C228.027 527.299 224.295 522.818 219.692 522.818Z" fill="white"/>
</g>
<path d="M137.526 584.864C116.151 584.864 98.113 623.066 92.421 658.433H182.631C176.939 623.066 158.901 584.864 137.526 584.864Z" fill="#396672"/>
<mask id="mask3_101_11" style="mask-type:luminance" maskUnits="userSpaceOnUse" x="92" y="584" width="91" height="75">
<path d="M137.526 584.864C116.151 584.864 98.113 623.066 92.421 658.433H182.631C176.939 623.066 158.901 584.864 137.526 584.864Z" fill="white"/>
</mask>
<g mask="url(#mask3_101_11)">
<path d="M152.185 571.594C148.923 571.594 146.015 573.254 144.107 575.848C144.034 571.706 140.977 568.372 137.21 568.372C133.397 568.372 130.306 571.786 130.306 575.997V576.412C128.419 573.499 125.337 571.594 121.846 571.594C116.1 571.594 111.441 576.739 111.441 583.085V590.817C111.441 597.163 116.1 602.308 121.846 602.308C125.443 602.308 128.612 600.292 130.481 597.229C131.177 600.628 133.922 603.168 137.21 603.168C140.358 603.168 143.008 600.839 143.839 597.659C145.735 600.476 148.763 602.309 152.185 602.309C157.931 602.309 162.59 597.164 162.59 590.818V583.086C162.59 576.739 157.931 571.594 152.185 571.594Z" fill="white"/>
</g>
<path d="M311.16 529.232C286.88 529.232 266.391 583.43 259.925 633.605H362.395C355.929 583.43 335.44 529.232 311.16 529.232Z" fill="#396672"/>
<mask id="mask4_101_11" style="mask-type:luminance" maskUnits="userSpaceOnUse" x="259" y="529" width="104" height="105">
<path d="M311.16 529.232C286.88 529.232 266.391 583.43 259.925 633.605H362.395C355.929 583.43 335.44 529.232 311.16 529.232Z" fill="white"/>
</mask>
<g mask="url(#mask4_101_11)">
<path d="M328.094 507.671C324.389 507.671 321.085 510.026 318.918 513.706C318.835 507.83 315.363 503.1 311.083 503.1C306.752 503.1 303.241 507.943 303.241 513.918V514.507C301.097 510.374 297.596 507.671 293.631 507.671C287.104 507.671 281.812 514.97 281.812 523.974V534.944C281.812 543.948 287.104 551.247 293.631 551.247C297.716 551.247 301.317 548.387 303.44 544.041C304.23 548.863 307.349 552.466 311.084 552.466C314.66 552.466 317.67 549.162 318.614 544.65C320.768 548.646 324.207 551.247 328.094 551.247C334.622 551.247 339.913 543.948 339.913 534.944V523.974C339.914 514.97 334.622 507.671 328.094 507.671Z" fill="white"/>
</g>
<path d="M411.041 658.558C411.041 647.986 397.42 650.993 397.42 650.993C397.42 650.993 393.967 645.983 388.071 645.983C382.782 645.983 378.439 650.804 378.439 650.804C378.439 650.804 376.768 642.73 365.353 643.748C357.333 644.463 356.595 648.918 356.595 648.918C356.595 648.918 357.333 645.328 352.706 645.328C352.456 645.328 352.219 645.34 351.996 645.362L365.983 658.559H411.041V658.558Z" fill="#069C6B"/>
<path d="M379.277 483.228L387.539 489.005L377.47 489.506L379.277 483.228Z" fill="#CC0033"/>
<path d="M369.87 517.279C369.77 517.626 369.407 517.827 369.06 517.727C368.713 517.627 368.512 517.265 368.612 516.917L378.425 482.817C378.525 482.47 378.887 482.269 379.235 482.369C379.582 482.469 379.783 482.831 379.683 483.179L369.87 517.279Z" fill="#235562"/>
<path d="M360.625 514.516L351.388 546.621L404.423 561.88L413.661 529.776L360.625 514.516Z" fill="#F2DDC2"/>
<path d="M362.493 510.126L362.063 511.62L413.762 526.495L414.192 525.001L362.493 510.126Z" fill="#A18C7A"/>
<path d="M414.866 522.551C414.411 522.42 413.936 522.683 413.806 523.138L412.48 527.747L408.992 526.743L410.318 522.134C410.449 521.679 410.186 521.204 409.731 521.074C409.276 520.943 408.801 521.206 408.671 521.661L407.345 526.27L403.857 525.266L405.183 520.657C405.314 520.202 405.051 519.727 404.596 519.596C404.141 519.465 403.666 519.728 403.536 520.183L402.21 524.792L398.722 523.788L400.048 519.179C400.179 518.724 399.916 518.249 399.462 518.118C399.007 517.987 398.532 518.25 398.401 518.705L397.075 523.314L393.587 522.31L394.913 517.701C395.044 517.246 394.781 516.771 394.327 516.64C393.872 516.509 393.397 516.772 393.266 517.227L391.94 521.836L388.452 520.832L389.778 516.223C389.909 515.768 389.646 515.294 389.192 515.162C388.737 515.031 388.262 515.294 388.132 515.749L386.806 520.358L383.318 519.354L384.644 514.745C384.775 514.29 384.512 513.816 384.058 513.685C383.603 513.554 383.128 513.817 382.998 514.272L381.672 518.881L378.184 517.877L379.51 513.268C379.641 512.813 379.378 512.338 378.924 512.207C378.469 512.076 377.994 512.339 377.863 512.794L376.537 517.403L373.049 516.399L374.375 511.79C374.506 511.335 374.243 510.86 373.788 510.73C373.333 510.599 372.859 510.862 372.728 511.316L371.402 515.925L367.914 514.921L369.24 510.312C369.371 509.857 369.108 509.382 368.653 509.251C368.198 509.12 367.723 509.383 367.593 509.837L366.267 514.446L362.779 513.442L364.105 508.833C364.236 508.378 363.973 507.903 363.519 507.772C363.064 507.641 362.589 507.904 362.459 508.358L360.967 513.541C360.966 513.545 360.967 513.548 360.966 513.552L359.873 517.35L412.867 532.6L414.128 528.217L414.126 528.216L415.452 523.607C415.584 523.157 415.321 522.682 414.866 522.551Z" fill="#D7BBA3"/>
<path d="M370.702 536.144C371.505 533.354 369.875 530.437 367.062 529.627C364.249 528.817 361.317 530.423 360.515 533.212L356.795 546.139L366.983 549.071L370.702 536.144Z" fill="#6C5E52"/>
<path d="M403.833 545.678C404.636 542.888 403.006 539.971 400.193 539.161C397.38 538.352 394.448 539.957 393.646 542.746L389.926 555.673L400.114 558.605L403.833 545.678Z" fill="#6C5E52"/>
<path d="M326.714 603.62L320.211 626.221L388.528 645.878L395.031 623.276L326.714 603.62Z" fill="#F2DDC2"/>
<path d="M303.867 683.076C302.615 687.426 305.127 691.967 309.477 693.219L362.042 708.345C366.392 709.597 370.933 707.085 372.185 702.735L378.787 679.791L310.469 660.132L303.867 683.076Z" fill="#F2DDC2"/>
<path d="M334.842 575.37L328.34 597.971L396.657 617.627L403.16 595.027L334.842 575.37Z" fill="#F2DDC2"/>
<path d="M318.583 631.871L312.08 654.471L380.398 674.128L386.901 651.527L318.583 631.871Z" fill="#F2DDC2"/>
<path d="M342.972 547.119L336.469 569.72L404.786 589.377L411.289 566.775L342.972 547.119Z" fill="#F2DDC2"/>
<path d="M354.586 561.587C355.389 558.797 353.778 555.885 350.988 555.082C348.198 554.279 345.286 555.89 344.484 558.68L340.764 571.607L350.866 574.514L354.586 561.587Z" fill="#6C5E52"/>
<path d="M371.023 566.318C371.826 563.528 370.215 560.616 367.425 559.813C364.635 559.01 361.723 560.621 360.921 563.411L357.201 576.338L367.303 579.245L371.023 566.318Z" fill="#6C5E52"/>
<path d="M387.461 571.048C388.264 568.258 386.653 565.346 383.863 564.543C381.073 563.74 378.161 565.351 377.358 568.141L373.638 581.068L383.74 583.975L387.461 571.048Z" fill="#6C5E52"/>
<path d="M403.898 575.778C404.701 572.988 403.09 570.076 400.3 569.273C397.51 568.47 394.598 570.081 393.795 572.871L390.075 585.798L400.177 588.705L403.898 575.778Z" fill="#6C5E52"/>
<path d="M346.161 590.867C346.964 588.077 345.353 585.165 342.563 584.362C339.773 583.559 336.861 585.17 336.059 587.96L332.339 600.887L342.441 603.794L346.161 590.867Z" fill="#6C5E52"/>
<path d="M362.598 595.597C363.401 592.807 361.79 589.895 359 589.092C356.21 588.289 353.298 589.9 352.495 592.69L348.775 605.617L358.877 608.524L362.598 595.597Z" fill="#6C5E52"/>
<path d="M379.035 600.327C379.838 597.537 378.227 594.625 375.437 593.823C372.647 593.02 369.735 594.631 368.932 597.421L365.212 610.348L375.314 613.255L379.035 600.327Z" fill="#6C5E52"/>
<path d="M395.473 605.057C396.276 602.267 394.665 599.355 391.875 598.552C389.085 597.749 386.173 599.36 385.37 602.15L381.65 615.077L391.752 617.984L395.473 605.057Z" fill="#6C5E52"/>
<path d="M338.179 618.605C338.982 615.815 337.371 612.903 334.581 612.1C331.791 611.297 328.879 612.908 328.077 615.698L324.357 628.625L334.459 631.532L338.179 618.605Z" fill="#6C5E52"/>
<path d="M354.616 623.335C355.419 620.545 353.808 617.633 351.018 616.83C348.228 616.027 345.316 617.638 344.513 620.428L340.793 633.355L350.895 636.262L354.616 623.335Z" fill="#6C5E52"/>
<path d="M371.053 628.065C371.856 625.275 370.245 622.363 367.455 621.561C364.665 620.758 361.753 622.369 360.95 625.159L357.23 638.086L367.332 640.993L371.053 628.065Z" fill="#6C5E52"/>
<path d="M387.491 632.795C388.294 630.005 386.683 627.093 383.893 626.29C381.103 625.487 378.191 627.098 377.388 629.888L373.668 642.815L383.77 645.722L387.491 632.795Z" fill="#6C5E52"/>
<path d="M330.049 646.856C330.852 644.066 329.241 641.154 326.451 640.351C323.661 639.548 320.749 641.159 319.946 643.949L316.226 656.876L326.328 659.783L330.049 646.856Z" fill="#6C5E52"/>
<path d="M346.486 651.586C347.289 648.796 345.678 645.884 342.889 645.082C340.099 644.279 337.187 645.89 336.384 648.679L332.664 661.606L342.766 664.513L346.486 651.586Z" fill="#6C5E52"/>
<path d="M362.923 656.316C363.726 653.526 362.115 650.614 359.325 649.811C356.535 649.008 353.623 650.619 352.82 653.409L349.1 666.336L359.202 669.243L362.923 656.316Z" fill="#6C5E52"/>
<path d="M379.361 661.046C380.164 658.256 378.553 655.344 375.763 654.541C372.973 653.738 370.061 655.349 369.259 658.139L365.539 671.066L375.641 673.973L379.361 661.046Z" fill="#6C5E52"/>
<path d="M322.215 674.08C323.018 671.29 321.407 668.378 318.617 667.575C315.827 666.772 312.915 668.383 312.113 671.173L308.393 684.101L318.495 687.008L322.215 674.08Z" fill="#6C5E52"/>
<path d="M338.652 678.811C339.455 676.021 337.844 673.109 335.054 672.306C332.264 671.503 329.352 673.114 328.55 675.904L324.83 688.831L334.932 691.738L338.652 678.811Z" fill="#6C5E52"/>
<path d="M355.089 683.541C355.892 680.751 354.281 677.839 351.491 677.036C348.701 676.233 345.789 677.844 344.986 680.634L341.266 693.561L351.368 696.468L355.089 683.541Z" fill="#6C5E52"/>
<path d="M371.527 688.271C372.33 685.481 370.719 682.569 367.93 681.767C365.14 680.964 362.228 682.575 361.425 685.365L357.705 698.292L367.807 701.199L371.527 688.271Z" fill="#6C5E52"/>
<path d="M312.079 654.469L310.453 660.12L378.771 679.777L380.397 674.126L312.079 654.469Z" fill="#D7BBA3"/>
<path d="M320.21 626.221L318.584 631.871L386.902 651.528L388.528 645.877L320.21 626.221Z" fill="#D7BBA3"/>
<path d="M328.339 597.97L326.714 603.62L395.031 623.277L396.657 617.626L328.339 597.97Z" fill="#D7BBA3"/>
<path d="M346.078 544.367C345.909 544.953 345.297 545.292 344.711 545.123C344.125 544.954 343.786 544.342 343.955 543.756L345.878 537.074C346.047 536.488 346.659 536.149 347.245 536.318C347.831 536.487 348.17 537.099 348.001 537.685L346.078 544.367Z" fill="#E88538"/>
<path d="M346.37 537.808L345.816 539.734L412.464 558.91L413.018 556.985L346.37 537.808Z" fill="#A18C7A"/>
<path d="M346.522 542.826C346.353 543.412 345.741 543.751 345.155 543.582C344.569 543.413 344.23 542.801 344.399 542.215L346.322 535.533C346.491 534.947 347.103 534.608 347.689 534.777C348.275 534.946 348.614 535.558 348.445 536.144L346.522 542.826Z" fill="#D7BBA3"/>
<path d="M353.141 544.731C352.972 545.317 352.36 545.656 351.774 545.487C351.188 545.318 350.849 544.706 351.018 544.12L352.941 537.438C353.11 536.852 353.722 536.513 354.308 536.682C354.894 536.851 355.233 537.463 355.064 538.049L353.141 544.731Z" fill="#D7BBA3"/>
<path d="M359.761 546.636C359.592 547.222 358.98 547.561 358.394 547.392C357.808 547.223 357.469 546.611 357.638 546.025L359.561 539.343C359.73 538.757 360.342 538.418 360.928 538.587C361.514 538.756 361.853 539.368 361.684 539.954L359.761 546.636Z" fill="#D7BBA3"/>
<path d="M366.38 548.541C366.211 549.127 365.599 549.466 365.013 549.297C364.427 549.128 364.088 548.516 364.257 547.93L366.18 541.248C366.349 540.662 366.961 540.323 367.547 540.492C368.133 540.661 368.472 541.273 368.303 541.859L366.38 548.541Z" fill="#D7BBA3"/>
<path d="M373 550.446C372.831 551.032 372.219 551.371 371.633 551.202C371.047 551.033 370.708 550.421 370.877 549.835L372.8 543.153C372.969 542.567 373.581 542.228 374.167 542.397C374.753 542.566 375.092 543.178 374.923 543.764L373 550.446Z" fill="#D7BBA3"/>
<path d="M379.619 552.351C379.45 552.937 378.838 553.276 378.252 553.107C377.666 552.938 377.327 552.326 377.496 551.74L379.419 545.058C379.588 544.472 380.2 544.133 380.786 544.302C381.372 544.471 381.711 545.083 381.542 545.669L379.619 552.351Z" fill="#D7BBA3"/>
<path d="M386.238 554.255C386.069 554.841 385.457 555.18 384.871 555.011C384.285 554.842 383.946 554.23 384.115 553.644L386.038 546.962C386.207 546.376 386.819 546.037 387.405 546.206C387.991 546.375 388.33 546.987 388.161 547.573L386.238 554.255Z" fill="#D7BBA3"/>
<path d="M392.858 556.16C392.689 556.746 392.077 557.085 391.491 556.916C390.905 556.747 390.566 556.135 390.735 555.549L392.658 548.867C392.827 548.281 393.439 547.942 394.025 548.111C394.611 548.28 394.95 548.892 394.781 549.478L392.858 556.16Z" fill="#D7BBA3"/>
<path d="M399.477 558.065C399.308 558.651 398.696 558.99 398.11 558.821C397.524 558.652 397.185 558.04 397.354 557.454L399.277 550.772C399.446 550.186 400.058 549.847 400.644 550.016C401.23 550.185 401.569 550.797 401.4 551.383L399.477 558.065Z" fill="#D7BBA3"/>
<path d="M406.097 559.97C405.928 560.556 405.316 560.895 404.73 560.726C404.144 560.557 403.805 559.945 403.974 559.359L405.897 552.677C406.066 552.091 406.678 551.752 407.264 551.921C407.85 552.09 408.189 552.702 408.02 553.288L406.097 559.97Z" fill="#D7BBA3"/>
<path d="M412.716 561.875C412.547 562.461 411.935 562.8 411.349 562.631C410.763 562.462 410.424 561.85 410.593 561.264L412.516 554.582C412.685 553.996 413.297 553.657 413.883 553.826C414.469 553.995 414.808 554.607 414.639 555.193L412.716 561.875Z" fill="#D7BBA3"/>
<path d="M388.238 536.231C389.041 533.441 387.43 530.529 384.64 529.726C381.85 528.923 378.938 530.534 378.136 533.324L376.621 538.589L386.723 541.496L388.238 536.231Z" fill="#6C5E52"/>
<path d="M388.051 541.913C387.9 542.439 387.35 542.743 386.824 542.592L375.952 539.464C375.426 539.312 375.122 538.763 375.273 538.237C375.424 537.711 375.974 537.407 376.5 537.558L387.371 540.686C387.899 540.837 388.203 541.386 388.051 541.913Z" fill="#A18C7A"/>
<path d="M344.599 541.47L342.973 547.12L411.291 566.777L412.916 561.126L344.599 541.47Z" fill="#D7BBA3"/>
<path d="M336.469 569.719L334.843 575.37L403.161 595.026L404.786 589.375L336.469 569.719Z" fill="#D7BBA3"/>
<path d="M315.124 638.22C318.32 638.22 320.91 640.778 320.91 643.934C320.91 644.206 320.889 644.474 320.852 644.736C321.559 644.232 322.426 643.934 323.365 643.934C325.386 643.934 327.08 645.312 327.538 647.169C328.527 646.538 329.704 646.17 330.969 646.17C334.464 646.17 337.297 648.968 337.297 652.419C337.297 653.256 337.129 654.053 336.827 654.782C336.981 654.765 337.138 654.756 337.297 654.756C339.669 654.756 341.593 656.655 341.593 658.998C341.593 659.073 341.591 659.148 341.587 659.222H315.125V638.22H315.124Z" fill="#069C6B"/>
<path d="M167.695 649.216C167.695 649.216 146.621 632.614 139.188 623.953L91.4159 638.835C91.3019 649.993 85.9709 669.241 85.9709 669.241L111.552 666.706L106.736 651.246C104.461 643.944 108.537 636.18 115.839 633.905C123.141 631.63 130.905 635.706 133.18 643.008L137.996 658.468L167.695 649.216Z" fill="#BDA799"/>
<path d="M110.915 596.609L121.565 621.602L133.724 617.771C133.724 617.771 122.059 605.635 116.949 586.845C115.011 579.718 86.0179 588.766 88.7419 595.632C95.6739 613.11 92.1339 630.876 92.1339 630.876L104.971 626.831L100.135 599.968L110.915 596.609Z" fill="#BDA799"/>
<path d="M124.832 618.829L98.5489 627.017L83.6709 631.652L88.0229 639.892L91.4149 638.835L139.188 623.953L141.726 623.163L140.628 613.909L124.832 618.829Z" fill="#5E544C"/>
<path d="M117.114 586.421L88.916 594.759L66.158 488.037L75.312 485.186L117.114 586.421Z" fill="#BDA799"/>
<path d="M69.3279 479.691C69.4719 480.152 69.2139 480.642 68.7529 480.786C68.2919 480.93 67.8019 480.672 67.6579 480.211L64.5869 470.353C64.4429 469.892 64.7009 469.402 65.1619 469.258C65.6229 469.114 66.1129 469.372 66.2569 469.833L69.3279 479.691Z" fill="#8D7D73"/>
<path d="M74.8529 480.63C75.8379 483.791 74.0729 487.152 70.9119 488.137C67.7509 489.122 64.3899 487.357 63.4049 484.196C62.4199 481.035 64.1849 477.674 67.3459 476.689C70.5069 475.704 73.8679 477.469 74.8529 480.63Z" fill="#5E544C"/>
<path d="M76.8369 486.858L65.5479 490.375L62.976 486.597L76.8089 482.288L76.8369 486.858Z" fill="#8D7D73"/>
<path d="M117.293 587.468L89.0027 596.281L91.0304 602.79L119.321 593.977L117.293 587.468Z" fill="#5E544C"/>
<path d="M121.456 586.63L85.112 597.952L80.908 590.187L120.507 577.851L121.456 586.63Z" fill="#8D7D73"/>
<path d="M128.349 653.942C128.561 653.418 128.679 652.847 128.679 652.248C128.679 649.728 126.61 647.685 124.058 647.685C123.83 647.685 123.605 647.702 123.386 647.734C123.125 644.919 120.728 642.715 117.81 642.715C115.406 642.715 113.357 644.211 112.562 646.311C111.715 645.297 110.432 644.651 108.997 644.651C108.953 644.651 108.911 644.657 108.868 644.658C108.825 644.657 108.782 644.651 108.739 644.651C107.304 644.651 106.021 645.297 105.174 646.311C104.38 644.211 102.33 642.715 99.926 642.715C97.008 642.715 94.612 644.92 94.35 647.734C94.131 647.702 93.906 647.685 93.678 647.685C91.126 647.685 89.057 649.728 89.057 652.248C89.057 652.847 89.175 653.418 89.387 653.942C87.3 654.382 85.735 656.212 85.735 658.404C85.735 658.62 85.751 658.832 85.78 659.039H107.048H110.687H131.955C131.984 658.831 132 658.619 132 658.404C132.002 656.212 130.436 654.382 128.349 653.942Z" fill="#069C6B"/>
<path d="M251.364 533.041C251.364 533.463 251.022 533.805 250.6 533.805C250.178 533.805 249.836 533.463 249.836 533.041V513.904C249.836 513.482 250.178 513.14 250.6 513.14C251.022 513.14 251.364 513.482 251.364 513.904V533.041Z" fill="#E6A150"/>
<path d="M252.977 519.651C252.977 520.964 251.912 522.029 250.599 522.029C249.286 522.029 248.221 520.964 248.221 519.651C248.221 518.338 249.286 517.273 250.599 517.273C251.913 517.273 252.977 518.337 252.977 519.651Z" fill="#F2DDC2"/>
<path d="M253.94 526.331C253.94 528.176 252.444 529.671 250.6 529.671C248.755 529.671 247.26 528.176 247.26 526.331C247.26 524.486 248.756 522.991 250.6 522.991C252.444 522.991 253.94 524.487 253.94 526.331Z" fill="#F2DDC2"/>
<path d="M288.445 570.654C288.445 570.879 288.628 571.062 288.853 571.062C289.079 571.062 289.261 570.879 289.261 570.654V560.43C289.261 560.205 289.078 560.022 288.853 560.022C288.628 560.022 288.445 560.205 288.445 560.43V570.654Z" fill="#D7BBA3"/>
<path d="M287.583 563.501C287.583 564.203 288.152 564.771 288.853 564.771C289.555 564.771 290.124 564.202 290.124 563.501C290.124 562.799 289.555 562.23 288.853 562.23C288.151 562.23 287.583 562.799 287.583 563.501Z" fill="#E6A150"/>
<path d="M287.068 567.07C287.068 568.056 287.867 568.855 288.853 568.855C289.839 568.855 290.638 568.056 290.638 567.07C290.638 566.084 289.839 565.285 288.853 565.285C287.867 565.285 287.068 566.084 287.068 567.07Z" fill="#E6A150"/>
<path d="M303.815 601.847H275.313V621.781H303.815V601.847Z" fill="#AD793C"/>
<path d="M271.723 591.346C272.349 582.619 280.798 574.83 288.896 569.84L288.919 569.868C297.011 574.859 305.445 582.642 306.071 591.361C306.367 595.487 305.372 599.053 303.539 601.821L274.255 601.806C272.422 599.038 271.427 595.472 271.723 591.346Z" fill="#CBA982"/>
<path d="M305.787 601.081H274.477V604.42H305.787V601.081Z" fill="#F5E4CE"/>
<path d="M212.573 570.654C212.573 570.879 212.39 571.062 212.165 571.062C211.939 571.062 211.757 570.879 211.757 570.654V560.43C211.757 560.205 211.94 560.022 212.165 560.022C212.39 560.022 212.573 560.205 212.573 560.43V570.654Z" fill="#D7BBA3"/>
<path d="M313.054 635.976C313.054 637.459 314.256 638.661 315.739 638.661C317.222 638.661 318.424 637.459 318.424 635.976V612.215C318.424 610.732 317.222 609.53 315.739 609.53C314.256 609.53 313.054 610.732 313.054 612.215V635.976Z" fill="#AD793C"/>
<path d="M291.751 611.992C291.751 610.143 293.25 608.644 295.099 608.644C296.948 608.644 298.447 610.143 298.447 611.992V619.44H291.752V611.992H291.751Z" fill="#EBB473"/>
<path d="M280.84 611.992C280.84 610.143 282.339 608.644 284.188 608.644C286.037 608.644 287.536 610.143 287.536 611.992V619.44H280.841V611.992H280.84Z" fill="#EBB473"/>
<path d="M318.438 618.355H272.4V660.509H318.438V618.355Z" fill="#E6A150"/>
<path opacity="0.4" d="M313.545 624.013H303.474V639.6H313.545V624.013Z" fill="#F2DDC2"/>
<mask id="mask5_101_11" style="mask-type:luminance" maskUnits="userSpaceOnUse" x="303" y="624" width="11" height="16">
<path d="M313.545 624.013H303.474V639.6H313.545V624.013Z" fill="white"/>
</mask>
<g mask="url(#mask5_101_11)">
<path d="M302.994 639.64C302.994 642.55 305.433 642.032 308.441 642.032C311.449 642.032 313.888 642.961 313.888 640.051V632.023C313.888 629.113 311.449 626.753 308.441 626.753C305.433 626.753 302.994 629.112 302.994 632.023V639.64Z" fill="#AD793C"/>
</g>
<path d="M213.435 563.501C213.435 564.203 212.866 564.771 212.165 564.771C211.463 564.771 210.894 564.202 210.894 563.501C210.894 562.799 211.463 562.23 212.165 562.23C212.867 562.23 213.435 562.799 213.435 563.501Z" fill="#E6A150"/>
<path d="M213.95 567.07C213.95 568.056 213.151 568.855 212.165 568.855C211.179 568.855 210.38 568.056 210.38 567.07C210.38 566.084 211.179 565.285 212.165 565.285C213.151 565.285 213.95 566.084 213.95 567.07Z" fill="#E6A150"/>
<path d="M225.705 601.847H197.203V621.781H225.705V601.847Z" fill="#AD793C"/>
<path d="M187.964 635.976C187.964 637.459 186.762 638.661 185.279 638.661C183.796 638.661 182.594 637.459 182.594 635.976V612.215C182.594 610.732 183.796 609.53 185.279 609.53C186.762 609.53 187.964 610.732 187.964 612.215V635.976Z" fill="#AD793C"/>
<path d="M209.267 611.992C209.267 610.143 207.768 608.644 205.919 608.644C204.07 608.644 202.571 610.143 202.571 611.992V619.44H209.267V611.992Z" fill="#EBB473"/>
<path d="M220.178 611.992C220.178 610.143 218.679 608.644 216.83 608.644C214.981 608.644 213.482 610.143 213.482 611.992V619.44H220.177L220.178 611.992Z" fill="#EBB473"/>
<path d="M228.618 618.355H182.58V660.509H228.618V618.355Z" fill="#E6A150"/>
<path opacity="0.4" d="M197.544 624.013H187.473V639.6H197.544V624.013Z" fill="#F2DDC2"/>
<mask id="mask6_101_11" style="mask-type:luminance" maskUnits="userSpaceOnUse" x="187" y="624" width="11" height="16">
<path d="M197.544 624.013H187.473V639.6H197.544V624.013Z" fill="white"/>
</mask>
<g mask="url(#mask6_101_11)">
<path d="M198.024 639.64C198.024 642.55 195.585 642.032 192.577 642.032C189.569 642.032 187.13 642.961 187.13 640.051V632.023C187.13 629.113 189.569 626.753 192.577 626.753C195.585 626.753 198.024 629.112 198.024 632.023V639.64Z" fill="#AD793C"/>
</g>
<path opacity="0.4" d="M220.355 623.956H210.284V639.543H220.355V623.956Z" fill="#F2DDC2"/>
<mask id="mask7_101_11" style="mask-type:luminance" maskUnits="userSpaceOnUse" x="210" y="623" width="11" height="17">
<path d="M220.355 623.956H210.284V639.543H220.355V623.956Z" fill="white"/>
</mask>
<g mask="url(#mask7_101_11)">
<path d="M220.835 639.582C220.835 642.492 218.396 641.974 215.388 641.974C212.38 641.974 209.941 642.903 209.941 639.993V631.965C209.941 629.055 212.38 626.695 215.388 626.695C218.396 626.695 220.835 629.054 220.835 631.965V639.582Z" fill="#AD793C"/>
</g>
<path opacity="0.4" d="M197.562 644.925H187.491V660.512H197.562V644.925Z" fill="#F2DDC2"/>
<mask id="mask8_101_11" style="mask-type:luminance" maskUnits="userSpaceOnUse" x="187" y="644" width="11" height="17">
<path d="M197.562 644.925H187.491V660.512H197.562V644.925Z" fill="white"/>
</mask>
<g mask="url(#mask8_101_11)">
<path d="M198.041 660.552C198.041 663.462 195.602 662.944 192.594 662.944C189.586 662.944 187.147 663.873 187.147 660.963V652.935C187.147 650.025 189.586 647.665 192.594 647.665C195.602 647.665 198.041 650.024 198.041 652.935V660.552Z" fill="#AD793C"/>
</g>
<path opacity="0.4" d="M220.416 644.933H210.345V660.52H220.416V644.933Z" fill="#F2DDC2"/>
<mask id="mask9_101_11" style="mask-type:luminance" maskUnits="userSpaceOnUse" x="210" y="644" width="11" height="17">
<path d="M220.416 644.933H210.345V660.52H220.416V644.933Z" fill="white"/>
</mask>
<g mask="url(#mask9_101_11)">
<path d="M220.896 660.559C220.896 663.469 218.457 662.951 215.449 662.951C212.441 662.951 210.002 663.88 210.002 660.97V652.942C210.002 650.032 212.441 647.672 215.449 647.672C218.457 647.672 220.896 650.031 220.896 652.942V660.559Z" fill="#AD793C"/>
</g>
<path opacity="0.4" d="M225.362 639.232H205.206V618.39H202.722V639.232H182.566V641.716H202.722V660.53H205.206V641.716H225.362V639.232Z" fill="#AD793C"/>
<path opacity="0.8" d="M229.295 591.346C228.668 582.619 220.22 574.83 212.122 569.84L212.099 569.868C204.007 574.859 195.572 582.642 194.946 591.361C194.65 595.487 195.645 599.053 197.478 601.821L226.763 601.806C228.596 599.038 229.591 595.472 229.295 591.346Z" fill="#E6A150"/>
<path d="M282.769 571.75C281.596 555.416 265.784 540.837 250.625 531.497L250.583 531.55C235.436 540.891 219.65 555.459 218.478 571.779C217.924 579.501 219.786 586.175 223.217 591.357L278.029 591.329C281.461 586.147 283.323 579.472 282.769 571.75Z" fill="#F0C899"/>
<path d="M279.859 590.613H221.255V601.123H279.859V590.613Z" fill="#E6A150"/>
<mask id="mask10_101_11" style="mask-type:luminance" maskUnits="userSpaceOnUse" x="221" y="590" width="59" height="12">
<path d="M279.859 590.613H221.255V601.123H279.859V590.613Z" fill="white"/>
</mask>
<g mask="url(#mask10_101_11)">
<path d="M295.619 582.084H218.337V595.621H295.619V582.084Z" fill="#EBB676"/>
</g>
<path d="M229.295 591.346C228.668 582.619 220.22 574.83 212.122 569.84L212.099 569.868C204.007 574.859 195.572 582.642 194.946 591.361C194.65 595.487 195.645 599.053 197.478 601.821L226.763 601.806C228.596 599.038 229.591 595.472 229.295 591.346Z" fill="#CBA982"/>
<path d="M282.769 571.75C281.596 555.416 265.784 540.837 250.625 531.497L250.583 531.55C235.436 540.891 219.65 555.459 218.478 571.779C217.924 579.501 219.786 586.175 223.217 591.357L278.029 591.329C281.461 586.147 283.323 579.472 282.769 571.75Z" fill="#F0C899"/>
<path d="M226.54 601.081H195.23V604.42H226.54V601.081Z" fill="#F5E4CE"/>
<path opacity="0.4" d="M313.545 645.013H303.474V660.6H313.545V645.013Z" fill="#F2DDC2"/>
<mask id="mask11_101_11" style="mask-type:luminance" maskUnits="userSpaceOnUse" x="303" y="645" width="11" height="16">
<path d="M313.545 645.013H303.474V660.6H313.545V645.013Z" fill="white"/>
</mask>
<g mask="url(#mask11_101_11)">
<path d="M302.994 660.64C302.994 663.55 305.433 663.032 308.441 663.032C311.449 663.032 313.888 663.961 313.888 661.051V653.023C313.888 650.113 311.449 647.753 308.441 647.753C305.433 647.753 302.994 650.112 302.994 653.023V660.64Z" fill="#AD793C"/>
</g>
<path opacity="0.4" d="M290.545 645.013H280.474V660.6H290.545V645.013Z" fill="#F2DDC2"/>
<mask id="mask12_101_11" style="mask-type:luminance" maskUnits="userSpaceOnUse" x="280" y="645" width="11" height="16">
<path d="M290.545 645.013H280.474V660.6H290.545V645.013Z" fill="white"/>
</mask>
<g mask="url(#mask12_101_11)">
<path d="M279.994 660.64C279.994 663.55 282.433 663.032 285.441 663.032C288.449 663.032 290.888 663.961 290.888 661.051V653.023C290.888 650.113 288.449 647.753 285.441 647.753C282.433 647.753 279.994 650.112 279.994 653.023V660.64Z" fill="#AD793C"/>
</g>
<path opacity="0.4" d="M290.545 624.013H280.474V639.6H290.545V624.013Z" fill="#F2DDC2"/>
<mask id="mask13_101_11" style="mask-type:luminance" maskUnits="userSpaceOnUse" x="280" y="624" width="11" height="16">
<path d="M290.545 624.013H280.474V639.6H290.545V624.013Z" fill="white"/>
</mask>
<g mask="url(#mask13_101_11)">
<path d="M279.994 639.64C279.994 642.55 282.433 642.032 285.441 642.032C288.449 642.032 290.888 642.961 290.888 640.051V632.023C290.888 629.113 288.449 626.753 285.441 626.753C282.433 626.753 279.994 629.112 279.994 632.023V639.64Z" fill="#AD793C"/>
</g>
<path opacity="0.4" d="M318.452 639.232H298.296V618.39H295.812V639.232H275.656V641.716H295.812V660.53H298.296V641.716H318.452V639.232Z" fill="#AD793C"/>
<path d="M276.775 594.497H225.368V660.526H276.775V594.497Z" fill="#F0C899"/>
<path opacity="0.8" d="M267.407 608.434H233.821V660.412H267.407V608.434Z" fill="#E6A150"/>
<mask id="mask14_101_11" style="mask-type:luminance" maskUnits="userSpaceOnUse" x="233" y="608" width="35" height="53">
<path d="M267.407 608.434H233.821V660.412H267.407V608.434Z" fill="white"/>
</mask>
<g mask="url(#mask14_101_11)">
<path d="M269.006 660.546C269.006 670.251 260.874 668.523 250.842 668.523C240.81 668.523 232.678 671.622 232.678 661.917V635.146C232.678 625.441 240.81 617.573 250.842 617.573C260.873 617.573 269.006 625.441 269.006 635.146V660.546Z" fill="#AD793C"/>
</g>
<path d="M279.859 590.613H221.255V601.123H279.859V590.613Z" fill="#E6A150"/>
<mask id="mask15_101_11" style="mask-type:luminance" maskUnits="userSpaceOnUse" x="221" y="590" width="59" height="12">
<path d="M279.859 590.613H221.255V601.123H279.859V590.613Z" fill="white"/>
</mask>
<g mask="url(#mask15_101_11)">
<path d="M295.619 582.084H218.337V595.621H295.619V582.084Z" fill="#EBB676"/>
</g>
<path d="M212.905 658.923C212.905 647.252 197.867 650.571 197.867 650.571C197.867 650.571 194.054 645.039 187.546 645.039C181.707 645.039 176.912 650.362 176.912 650.362C176.912 650.362 175.067 641.448 162.464 642.572C153.61 643.362 152.795 648.28 152.795 648.28C152.795 648.28 153.61 644.317 148.501 644.317C148.225 644.317 147.964 644.33 147.717 644.354L163.159 658.923H212.905Z" fill="#069C6B"/>
<path d="M164.297 469.251C163.899 469.251 163.577 468.929 163.577 468.531V424.766C163.577 424.368 163.899 424.046 164.297 424.046C164.695 424.046 165.017 424.368 165.017 424.766V468.53C165.017 468.928 164.695 469.251 164.297 469.251Z" fill="#5E544C"/>
<path d="M189.195 531.159H139.488V549.529H189.195V531.159Z" fill="#A87C40"/>
<path d="M189.195 585.909H139.488V660.701H189.195V585.909Z" fill="#A87C40"/>
<path d="M176.949 497.211H151.514V513.15H176.949V497.211Z" fill="#A87C40"/>
<path d="M147.23 498.886L164.297 451.538L181.364 498.886H147.23Z" fill="#5E544C"/>
<path d="M138.078 520.173C138.078 519.725 137.715 519.363 137.268 519.363C136.82 519.363 136.457 519.726 136.457 520.173V529.988H138.078V520.173Z" fill="#A4978F"/>
<path d="M192.828 520.173C192.828 519.725 192.465 519.363 192.018 519.363C191.57 519.363 191.208 519.726 191.208 520.173V529.988H192.829L192.828 520.173Z" fill="#A4978F"/>
<path d="M150.121 538.501C150.121 537.146 149.023 536.048 147.668 536.048C146.313 536.048 145.215 537.146 145.215 538.501V548.955H150.122L150.121 538.501Z" fill="#7D5633"/>
<path d="M158.548 538.501C158.548 537.146 157.45 536.048 156.094 536.048C154.739 536.048 153.641 537.146 153.641 538.501V548.955H158.548V538.501Z" fill="#7D5633"/>
<path d="M166.975 538.501C166.975 537.146 165.876 536.048 164.521 536.048C163.166 536.048 162.068 537.146 162.068 538.501V548.955H166.975V538.501Z" fill="#7D5633"/>
<path d="M175.402 538.501C175.402 537.146 174.304 536.048 172.948 536.048C171.593 536.048 170.495 537.146 170.495 538.501V548.955H175.402V538.501Z" fill="#7D5633"/>
<path d="M183.829 538.501C183.829 537.146 182.731 536.048 181.376 536.048C180.021 536.048 178.923 537.146 178.923 538.501V548.955H183.83V538.501H183.829Z" fill="#7D5633"/>
<path d="M158.236 503.672C158.236 502.317 157.138 501.219 155.782 501.219C154.427 501.219 153.329 502.317 153.329 503.672V514.126H158.236V503.672Z" fill="#7D5633"/>
<path d="M166.663 503.672C166.663 502.317 165.564 501.219 164.209 501.219C162.854 501.219 161.756 502.317 161.756 503.672V514.126H166.663V503.672Z" fill="#7D5633"/>
<path d="M175.089 503.672C175.089 502.317 173.991 501.219 172.636 501.219C171.281 501.219 170.183 502.317 170.183 503.672V514.126H175.09L175.089 503.672Z" fill="#7D5633"/>
<path d="M194.238 531.61H134.175L151.465 509.998H176.949L194.238 531.61Z" fill="#5E544C"/>
<path d="M164.297 446.092C165.706 446.092 166.848 444.95 166.848 443.541C166.848 442.132 165.706 440.99 164.297 440.99C162.888 440.99 161.746 442.132 161.746 443.541C161.746 444.95 162.888 446.092 164.297 446.092Z" fill="#8D7D73"/>
<path d="M165.888 434.897C165.888 435.776 165.176 436.488 164.297 436.488C163.418 436.488 162.706 435.776 162.706 434.897C162.706 434.018 163.418 433.306 164.297 433.306C165.176 433.306 165.888 434.018 165.888 434.897Z" fill="#8D7D73"/>
<path d="M145.702 587.77H143.661V600.895H145.702V587.77Z" fill="#7D5633"/>
<path d="M145.702 587.77H143.661V600.895H145.702V587.77Z" fill="#7D5633"/>
<path d="M150.504 587.77H148.463V600.895H150.504V587.77Z" fill="#7D5633"/>
<path d="M155.307 587.77H153.266V600.895H155.307V587.77Z" fill="#7D5633"/>
<path d="M160.109 587.77H158.068V600.895H160.109V587.77Z" fill="#7D5633"/>
<path d="M164.912 587.77H162.871V600.895H164.912V587.77Z" fill="#7D5633"/>
<path d="M169.715 587.77H167.674V600.895H169.715V587.77Z" fill="#7D5633"/>
<path d="M174.517 587.77H172.476V600.895H174.517V587.77Z" fill="#7D5633"/>
<path d="M179.32 587.77H177.279V600.895H179.32V587.77Z" fill="#7D5633"/>
<path d="M184.123 587.77H182.082V600.895H184.123V587.77Z" fill="#7D5633"/>
<path d="M145.702 612.77H143.661V625.895H145.702V612.77Z" fill="#7D5633"/>
<path d="M145.702 612.77H143.661V625.895H145.702V612.77Z" fill="#7D5633"/>
<path d="M150.504 612.77H148.463V625.895H150.504V612.77Z" fill="#7D5633"/>
<path d="M155.307 612.77H153.266V625.895H155.307V612.77Z" fill="#7D5633"/>
<path d="M160.109 612.77H158.068V625.895H160.109V612.77Z" fill="#7D5633"/>
<path d="M164.912 612.77H162.871V625.895H164.912V612.77Z" fill="#7D5633"/>
<path d="M169.715 612.77H167.674V625.895H169.715V612.77Z" fill="#7D5633"/>
<path d="M174.517 612.77H172.476V625.895H174.517V612.77Z" fill="#7D5633"/>
<path d="M179.32 612.77H177.279V625.895H179.32V612.77Z" fill="#7D5633"/>
<path d="M184.123 612.77H182.082V625.895H184.123V612.77Z" fill="#7D5633"/>
<path d="M145.702 639.77H143.661V657.895H145.702V639.77Z" fill="#7D5633"/>
<path d="M145.702 639.77H143.661V657.895H145.702V639.77Z" fill="#7D5633"/>
<path d="M150.504 639.77H148.463V657.895H150.504V639.77Z" fill="#7D5633"/>
<path d="M155.307 639.77H153.266V657.895H155.307V639.77Z" fill="#7D5633"/>
<path d="M160.109 639.77H158.068V657.895H160.109V639.77Z" fill="#7D5633"/>
<path d="M164.912 639.77H162.871V657.895H164.912V639.77Z" fill="#7D5633"/>
<path d="M169.715 639.77H167.674V657.895H169.715V639.77Z" fill="#7D5633"/>
<path d="M174.517 639.77H172.476V657.895H174.517V639.77Z" fill="#7D5633"/>
<path d="M179.32 639.77H177.279V657.895H179.32V639.77Z" fill="#7D5633"/>
<path d="M184.123 639.77H182.082V657.895H184.123V639.77Z" fill="#7D5633"/>
<path d="M192.347 628.863H136.066V635.977H192.347V628.863Z" fill="#7D5633"/>
<path d="M192.347 602.929H136.066V610.043H192.347V602.929Z" fill="#7D5633"/>
<path d="M191.357 546.828H136.787V589.241H191.357V546.828Z" fill="#BE946C"/>
<mask id="mask16_101_11" style="mask-type:luminance" maskUnits="userSpaceOnUse" x="136" y="546" width="56" height="44">
<path d="M191.357 546.828H136.787V589.241H191.357V546.828Z" fill="white"/>
</mask>
<g mask="url(#mask16_101_11)">
<path d="M139.489 543.226H129.403V594.014H139.489V543.226Z" fill="#A87C40"/>
</g>
<mask id="mask17_101_11" style="mask-type:luminance" maskUnits="userSpaceOnUse" x="136" y="546" width="56" height="44">
<path d="M191.357 546.828H136.787V589.241H191.357V546.828Z" fill="white"/>
</mask>
<g mask="url(#mask17_101_11)">
<path d="M197.84 542.956H188.755V593.744H197.84V542.956Z" fill="#A87C40"/>
</g>
<path d="M163.712 586.06C173.427 586.06 181.302 578.185 181.302 568.47C181.302 558.756 173.427 550.88 163.712 550.88C153.997 550.88 146.122 558.756 146.122 568.47C146.122 578.185 153.997 586.06 163.712 586.06Z" fill="#7D5633"/>
<path d="M163.712 583.778C172.166 583.778 179.02 576.925 179.02 568.47C179.02 560.016 172.166 553.162 163.712 553.162C155.258 553.162 148.404 560.016 148.404 568.47C148.404 576.925 155.258 583.778 163.712 583.778Z" fill="#F7EBDA"/>
<path d="M168.484 567.99H164.152V560.966C164.152 560.69 163.928 560.466 163.652 560.466C163.376 560.466 163.152 560.69 163.152 560.966V568.53C163.152 568.678 163.219 568.807 163.321 568.899C163.42 569.004 163.557 569.071 163.712 569.071H168.485C168.783 569.071 169.025 568.829 169.025 568.531C169.024 568.231 168.782 567.99 168.484 567.99Z" fill="#542B1D"/>
<path d="M163.757 557.274C163.559 557.274 163.397 557.113 163.397 556.914V554.618C163.397 554.419 163.559 554.258 163.757 554.258C163.955 554.258 164.117 554.419 164.117 554.618V556.914C164.117 557.113 163.955 557.274 163.757 557.274Z" fill="#864D36"/>
<path d="M159.811 557.953C159.663 557.953 159.525 557.862 159.472 557.716L158.687 555.558C158.62 555.371 158.717 555.165 158.902 555.096C159.091 555.026 159.297 555.124 159.365 555.311L160.15 557.469C160.218 557.656 160.121 557.862 159.935 557.931C159.894 557.946 159.852 557.953 159.811 557.953Z" fill="#864D36"/>
<path d="M156.337 559.941C156.234 559.941 156.133 559.897 156.061 559.812L154.585 558.053C154.457 557.901 154.477 557.674 154.629 557.546C154.781 557.416 155.008 557.437 155.137 557.59L156.613 559.349C156.741 559.501 156.721 559.728 156.569 559.856C156.502 559.914 156.419 559.941 156.337 559.941Z" fill="#864D36"/>
<path d="M153.753 562.998C153.691 562.998 153.629 562.983 153.573 562.95L151.584 561.802C151.412 561.703 151.353 561.483 151.452 561.31C151.552 561.137 151.774 561.078 151.945 561.178L153.934 562.326C154.106 562.425 154.165 562.645 154.066 562.818C153.997 562.933 153.876 562.998 153.753 562.998Z" fill="#864D36"/>
<path d="M152.368 566.754C152.348 566.754 152.327 566.753 152.306 566.748L150.045 566.349C149.848 566.315 149.717 566.128 149.752 565.932C149.786 565.738 149.966 565.595 150.168 565.64L152.429 566.039C152.626 566.074 152.757 566.26 152.722 566.456C152.692 566.631 152.54 566.754 152.368 566.754Z" fill="#864D36"/>
<path d="M150.092 571.156C149.92 571.156 149.768 571.033 149.737 570.858C149.702 570.662 149.833 570.475 150.03 570.441L152.291 570.042C152.492 570.001 152.672 570.139 152.708 570.334C152.743 570.53 152.612 570.717 152.415 570.751L150.154 571.15C150.132 571.155 150.111 571.156 150.092 571.156Z" fill="#864D36"/>
<path d="M151.718 575.673C151.594 575.673 151.473 575.608 151.406 575.493C151.308 575.321 151.367 575.1 151.538 575.001L153.528 573.853C153.695 573.754 153.918 573.811 154.021 573.985C154.119 574.157 154.06 574.378 153.889 574.477L151.899 575.625C151.842 575.657 151.78 575.673 151.718 575.673Z" fill="#864D36"/>
<path d="M154.792 579.36C154.71 579.36 154.627 579.333 154.56 579.276C154.408 579.148 154.388 578.921 154.516 578.769L155.992 577.01C156.12 576.859 156.349 576.838 156.5 576.966C156.652 577.094 156.672 577.321 156.544 577.473L155.068 579.232C154.996 579.316 154.895 579.36 154.792 579.36Z" fill="#864D36"/>
<path d="M158.942 581.773C158.901 581.773 158.859 581.766 158.818 581.751C158.632 581.683 158.535 581.477 158.603 581.289L159.388 579.131C159.457 578.945 159.664 578.847 159.851 578.916C160.037 578.984 160.134 579.19 160.066 579.378L159.281 581.536C159.227 581.683 159.089 581.773 158.942 581.773Z" fill="#864D36"/>
<path d="M163.667 582.622C163.469 582.622 163.307 582.461 163.307 582.262V579.966C163.307 579.767 163.469 579.606 163.667 579.606C163.865 579.606 164.027 579.767 164.027 579.966V582.262C164.027 582.461 163.865 582.622 163.667 582.622Z" fill="#864D36"/>
<path d="M168.397 581.804C168.249 581.804 168.111 581.713 168.058 581.567L167.273 579.409C167.205 579.222 167.302 579.016 167.488 578.948C167.677 578.88 167.883 578.976 167.951 579.163L168.736 581.321C168.803 581.508 168.706 581.714 168.521 581.783C168.48 581.797 168.438 581.804 168.397 581.804Z" fill="#864D36"/>
<path d="M172.562 579.417C172.459 579.417 172.358 579.373 172.286 579.288L170.81 577.529C170.682 577.377 170.702 577.15 170.854 577.022C171.005 576.892 171.232 576.913 171.362 577.066L172.838 578.825C172.966 578.977 172.946 579.204 172.794 579.332C172.726 579.39 172.643 579.417 172.562 579.417Z" fill="#864D36"/>
<path d="M175.66 575.75C175.598 575.75 175.536 575.735 175.48 575.702L173.49 574.554C173.318 574.455 173.259 574.235 173.358 574.062C173.458 573.889 173.68 573.83 173.85 573.93L175.84 575.078C176.012 575.177 176.071 575.397 175.972 575.57C175.905 575.685 175.784 575.75 175.66 575.75Z" fill="#864D36"/>
<path d="M177.316 571.245C177.296 571.245 177.275 571.244 177.254 571.239L174.993 570.84C174.796 570.806 174.665 570.619 174.7 570.423C174.735 570.229 174.91 570.092 175.117 570.131L177.378 570.53C177.575 570.565 177.706 570.751 177.671 570.947C177.64 571.122 177.488 571.245 177.316 571.245Z" fill="#864D36"/>
<path d="M175.07 566.843C174.898 566.843 174.746 566.72 174.715 566.545C174.68 566.349 174.811 566.162 175.008 566.128L177.269 565.729C177.47 565.683 177.65 565.826 177.686 566.021C177.721 566.217 177.59 566.404 177.393 566.438L175.132 566.837C175.111 566.841 175.09 566.843 175.07 566.843Z" fill="#864D36"/>
<path d="M173.715 563.076C173.591 563.076 173.47 563.011 173.403 562.896C173.304 562.724 173.364 562.503 173.535 562.404L175.525 561.256C175.694 561.156 175.915 561.214 176.018 561.388C176.116 561.56 176.057 561.781 175.886 561.88L173.897 563.028C173.839 563.06 173.777 563.076 173.715 563.076Z" fill="#864D36"/>
<path d="M171.155 559.999C171.073 559.999 170.99 559.972 170.923 559.914C170.771 559.786 170.751 559.559 170.879 559.407L172.355 557.648C172.486 557.496 172.711 557.476 172.863 557.604C173.015 557.732 173.035 557.959 172.907 558.111L171.431 559.87C171.359 559.955 171.257 559.999 171.155 559.999Z" fill="#864D36"/>
<path d="M167.696 557.984C167.655 557.984 167.613 557.977 167.572 557.962C167.386 557.894 167.289 557.688 167.357 557.5L168.142 555.342C168.211 555.156 168.418 555.059 168.605 555.127C168.791 555.195 168.888 555.401 168.82 555.589L168.035 557.747C167.982 557.893 167.844 557.984 167.696 557.984Z" fill="#864D36"/>
<path d="M411.051 658.53H85.925V717.66H86.166V717.994C86.166 731.106 96.629 741.736 109.535 741.736H387.624C400.53 741.736 410.993 731.106 410.993 717.994V717.66H411.052V658.53H411.051Z" fill="#E88538"/>
<mask id="mask18_101_11" style="mask-type:luminance" maskUnits="userSpaceOnUse" x="85" y="658" width="327" height="84">
<path d="M411.051 658.53H85.925V717.66H86.166V717.994C86.166 731.106 96.629 741.736 109.535 741.736H387.624C400.53 741.736 410.993 731.106 410.993 717.994V717.66H411.052V658.53H411.051Z" fill="white"/>
</mask>
<g mask="url(#mask18_101_11)">
<path opacity="0.3" d="M474.513 699.594H31.66V860.077H474.513V699.594Z" fill="#B0550C"/>
</g>
<mask id="mask19_101_11" style="mask-type:luminance" maskUnits="userSpaceOnUse" x="85" y="658" width="327" height="84">
<path d="M411.051 658.53H85.925V717.66H86.166V717.994C86.166 731.106 96.629 741.736 109.535 741.736H387.624C400.53 741.736 410.993 731.106 410.993 717.994V717.66H411.052V658.53H411.051Z" fill="white"/>
</mask>
<g mask="url(#mask19_101_11)">
<path d="M82.286 766.238C96.9564 766.238 108.849 754.346 108.849 739.675C108.849 725.005 96.9564 713.112 82.286 713.112C67.6157 713.112 55.723 725.005 55.723 739.675C55.723 754.346 67.6157 766.238 82.286 766.238Z" fill="#B0550C"/>
</g>
<mask id="mask20_101_11" style="mask-type:luminance" maskUnits="userSpaceOnUse" x="85" y="658" width="327" height="84">
<path d="M411.051 658.53H85.925V717.66H86.166V717.994C86.166 731.106 96.629 741.736 109.535 741.736H387.624C400.53 741.736 410.993 731.106 410.993 717.994V717.66H411.052V658.53H411.051Z" fill="white"/>
</mask>
<g mask="url(#mask20_101_11)">
<path d="M414.144 766.238C428.814 766.238 440.707 754.346 440.707 739.675C440.707 725.005 428.814 713.112 414.144 713.112C399.474 713.112 387.581 725.005 387.581 739.675C387.581 754.346 399.474 766.238 414.144 766.238Z" fill="#B0550C"/>
</g>
<path d="M296.74 710.648C296.74 712.892 294.921 714.711 292.677 714.711H280.895C278.651 714.711 276.832 712.892 276.832 710.648V688.709C276.832 686.465 278.651 684.646 280.895 684.646H292.677C294.921 684.646 296.74 686.465 296.74 688.709V710.648Z" fill="#833F0A"/>
<path d="M221.417 710.648C221.417 712.892 219.598 714.711 217.354 714.711H205.572C203.328 714.711 201.509 712.892 201.509 710.648V688.709C201.509 686.465 203.328 684.646 205.572 684.646H217.354C219.598 684.646 221.417 686.465 221.417 688.709V710.648Z" fill="#833F0A"/>
<path d="M164.652 710.648C164.652 712.892 162.833 714.711 160.589 714.711H148.807C146.563 714.711 144.744 712.892 144.744 710.648V688.709C144.744 686.465 146.563 684.646 148.807 684.646H160.589C162.833 684.646 164.652 686.465 164.652 688.709V710.648Z" fill="#833F0A"/>
<path d="M159.902 705.413C159.902 706.586 158.951 707.537 157.778 707.537H151.618C150.445 707.537 149.494 706.586 149.494 705.413V693.943C149.494 692.77 150.445 691.819 151.618 691.819H157.778C158.951 691.819 159.902 692.77 159.902 693.943V705.413Z" fill="#EDA064"/>
<path d="M350.23 710.648C350.23 712.892 348.411 714.711 346.167 714.711H334.385C332.141 714.711 330.322 712.892 330.322 710.648V688.709C330.322 686.465 332.141 684.646 334.385 684.646H346.167C348.411 684.646 350.23 686.465 350.23 688.709V710.648Z" fill="#833F0A"/>
<path d="M286.363 703.335C286.363 705.579 284.544 707.398 282.3 707.398H214.856C212.612 707.398 210.793 705.579 210.793 703.335V696.428C210.793 694.184 212.612 692.365 214.856 692.365H282.3C284.544 692.365 286.363 694.184 286.363 696.428V703.335Z" fill="#B0550C"/>
<path d="M251.169 692.365H245.989V714.891H251.169V692.365Z" fill="#833F0A"/>
<path d="M345.527 705.413C345.527 706.586 344.576 707.537 343.403 707.537H337.243C336.07 707.537 335.119 706.586 335.119 705.413V693.943C335.119 692.77 336.07 691.819 337.243 691.819H343.403C344.576 691.819 345.527 692.77 345.527 693.943V705.413Z" fill="#EDA064"/>
<path d="M257.03 712.549H240.32C238.123 712.549 236.341 714.388 236.341 716.657V744.181C236.341 746.45 238.122 748.289 240.32 748.289H257.03C259.227 748.289 261.008 746.45 261.008 744.181V716.657C261.008 714.389 259.227 712.549 257.03 712.549ZM248.344 718.915C247.355 718.915 246.554 718.113 246.554 717.125C246.554 716.136 247.355 715.335 248.344 715.335C249.333 715.335 250.134 716.137 250.134 717.125C250.134 718.113 249.332 718.915 248.344 718.915Z" fill="white"/>
<path d="M245.989 740.181C245.989 739.997 246.073 739.834 246.241 739.694C246.409 739.558 246.642 739.45 246.94 739.369C247.237 739.293 247.581 739.255 247.971 739.255C248.361 739.255 248.702 739.293 248.995 739.369C249.293 739.45 249.526 739.558 249.694 739.694C249.861 739.834 249.945 739.997 249.945 740.181C249.945 740.365 249.859 740.525 249.685 740.66C249.518 740.801 249.285 740.912 248.987 740.993C248.694 741.075 248.356 741.115 247.971 741.115C247.587 741.115 247.246 741.075 246.948 740.993C246.65 740.912 246.414 740.801 246.241 740.66C246.073 740.525 245.989 740.365 245.989 740.181ZM246.16 740.181C246.16 740.327 246.238 740.457 246.395 740.571C246.552 740.685 246.766 740.774 247.037 740.839C247.313 740.904 247.625 740.937 247.971 740.937C248.318 740.937 248.627 740.904 248.897 740.839C249.168 740.774 249.382 740.685 249.539 740.571C249.696 740.457 249.775 740.327 249.775 740.181C249.775 740.04 249.696 739.913 249.539 739.799C249.382 739.685 249.168 739.596 248.897 739.531C248.627 739.466 248.318 739.434 247.971 739.434C247.625 739.434 247.313 739.466 247.037 739.531C246.766 739.596 246.552 739.685 246.395 739.799C246.238 739.913 246.16 740.04 246.16 740.181Z" fill="#363636"/>
<path d="M245.989 738.692C245.989 738.448 246.043 738.272 246.152 738.164C246.26 738.056 246.449 738.002 246.72 738.002H249.612V737.449C249.612 737.395 249.642 737.368 249.702 737.368C249.756 737.368 249.783 737.395 249.783 737.449V738.002H250.807C250.861 738.002 250.888 738.031 250.888 738.091C250.888 738.145 250.861 738.172 250.807 738.172H249.783V738.725C249.783 738.779 249.756 738.806 249.702 738.806C249.642 738.806 249.612 738.779 249.612 738.725V738.172H246.728C246.512 738.172 246.363 738.21 246.282 738.286C246.2 738.362 246.16 738.497 246.16 738.692C246.16 738.752 246.133 738.782 246.078 738.782C246.019 738.782 245.989 738.752 245.989 738.692Z" fill="#363636"/>
<path d="M245.989 732.025C245.989 731.971 246.016 731.944 246.07 731.944H249.783C249.837 731.944 249.864 731.971 249.864 732.025C249.864 732.085 249.837 732.114 249.783 732.114H249.458C249.621 732.223 249.734 732.339 249.799 732.464C249.87 732.588 249.905 732.724 249.905 732.87C249.905 733.319 249.585 733.544 248.946 733.544C248.881 733.544 248.849 733.517 248.849 733.463C248.849 733.403 248.881 733.374 248.946 733.374C249.239 733.374 249.442 733.33 249.556 733.244C249.675 733.157 249.734 733.032 249.734 732.87C249.734 732.702 249.683 732.553 249.58 732.423C249.482 732.298 249.358 732.196 249.206 732.114H246.07C246.016 732.114 245.989 732.085 245.989 732.025Z" fill="#363636"/>
<path d="M245.989 730.407C245.989 730.223 246.073 730.058 246.241 729.911C246.414 729.771 246.65 729.66 246.948 729.578C247.246 729.503 247.587 729.465 247.971 729.465C248.356 729.465 248.697 729.503 248.995 729.578C249.293 729.66 249.526 729.768 249.694 729.903C249.861 730.044 249.945 730.207 249.945 730.391C249.945 730.559 249.875 730.702 249.734 730.821C249.599 730.946 249.409 731.041 249.166 731.106C248.927 731.176 248.654 731.211 248.345 731.211C248.237 731.149 247.516 729.933 247.363 729.681C247.037 729.741 247.363 729.681 247.037 729.741C246.766 729.806 246.552 729.895 246.395 730.009C246.238 730.128 246.16 730.261 246.16 730.407C246.16 730.548 246.219 730.667 246.338 730.764C246.458 730.867 246.615 730.949 246.81 731.008C246.858 731.024 246.883 731.054 246.883 731.098C246.883 731.135 246.866 731.16 246.834 731.171C246.807 731.181 246.777 731.181 246.745 731.171C246.512 731.095 246.328 730.995 246.192 730.87C246.057 730.745 245.989 730.591 245.989 730.407ZM249.775 730.391C249.775 730.207 249.645 730.047 249.385 729.911C248.995 729.578 247.966 729.57 247.529 729.681L248.386 731.041C248.781 731.03 249.111 730.965 249.377 730.846C249.642 730.732 249.775 730.58 249.775 730.391Z" fill="#363636"/>
<path d="M245.989 734.813C245.989 734.629 246.073 734.464 246.241 734.318C246.414 734.177 246.65 734.066 246.948 733.984C247.246 733.909 247.587 733.871 247.971 733.871C248.356 733.871 248.697 733.909 248.995 733.984C249.293 734.066 249.526 734.174 249.694 734.309C249.861 734.45 249.945 734.613 249.945 734.797C249.945 734.965 249.875 735.108 249.734 735.227C249.599 735.352 249.409 735.447 249.166 735.512C248.927 735.582 248.654 735.617 248.345 735.617C248.237 735.555 247.516 734.339 247.363 734.087C247.037 734.147 247.363 734.087 247.037 734.147C246.766 734.212 246.552 734.301 246.395 734.415C246.238 734.534 246.16 734.667 246.16 734.813C246.16 734.954 246.219 735.073 246.338 735.171C246.458 735.273 246.615 735.355 246.81 735.414C246.858 735.431 246.883 735.46 246.883 735.504C246.883 735.542 246.866 735.566 246.834 735.577C246.807 735.588 246.777 735.588 246.745 735.577C246.512 735.501 246.328 735.401 246.192 735.276C246.057 735.152 245.989 734.997 245.989 734.813ZM249.775 734.797C249.775 734.613 249.645 734.453 249.385 734.318C248.995 733.984 247.966 733.976 247.529 734.087L248.386 735.447C248.781 735.436 249.111 735.371 249.377 735.252C249.642 735.138 249.775 734.986 249.775 734.797Z" fill="#363636"/>
<path d="M245.989 727.217C245.989 727.163 246.016 727.136 246.07 727.136H251.7C251.754 727.136 251.781 727.163 251.781 727.217C251.781 727.277 251.754 727.306 251.7 727.306H249.458C249.62 727.415 249.734 727.531 249.799 727.656C249.87 727.78 249.905 727.916 249.905 728.062C249.905 728.512 249.604 728.736 249.003 728.736H246.07C246.016 728.736 245.989 728.707 245.989 728.647C245.989 728.593 246.016 728.566 246.07 728.566H249.003C249.268 728.566 249.455 728.522 249.564 728.436C249.677 728.349 249.734 728.224 249.734 728.062C249.734 727.894 249.683 727.745 249.58 727.615C249.482 727.491 249.358 727.388 249.206 727.306H246.07C246.016 727.306 245.989 727.277 245.989 727.217Z" fill="#363636"/>
<path d="M245.989 723.129C245.989 723.075 246.016 723.048 246.07 723.048L251.513 722.674C251.568 722.674 251.595 722.701 251.595 722.756C251.595 722.815 251.568 722.845 251.513 722.845L246.273 723.202C246.577 723.479 246.872 723.714 247.159 723.909C247.451 724.11 247.733 724.269 248.004 724.388C248.41 724.221 248.808 724.137 249.198 724.137C249.409 724.137 249.577 724.166 249.702 724.226C249.826 724.286 249.889 724.37 249.889 724.478C249.889 724.586 249.826 724.67 249.702 724.73C249.577 724.789 249.409 724.819 249.198 724.819C248.808 724.819 248.41 724.735 248.004 724.567C247.733 724.686 247.451 724.843 247.159 725.038C246.872 725.239 246.577 725.477 246.273 725.753L251.513 726.111C251.568 726.111 251.595 726.141 251.595 726.2C251.595 726.254 251.568 726.281 251.513 726.281L246.07 725.908C246.016 725.908 245.989 725.881 245.989 725.826C245.989 725.799 246 725.775 246.022 725.753C246.341 725.461 246.647 725.209 246.94 724.998C247.232 724.787 247.519 724.613 247.801 724.478C247.519 724.342 247.232 724.169 246.94 723.958C246.647 723.747 246.341 723.495 246.022 723.202C246 723.181 245.989 723.156 245.989 723.129ZM249.198 724.307C248.884 724.307 248.564 724.364 248.239 724.478C248.564 724.592 248.884 724.648 249.198 724.648C249.355 724.648 249.482 724.632 249.58 724.6C249.677 724.567 249.726 724.527 249.726 724.478C249.726 724.429 249.677 724.388 249.58 724.356C249.482 724.324 249.355 724.307 249.198 724.307Z" fill="#363636"/>
<path d="M245.989 743.517C245.989 743.485 246.014 743.46 246.045 743.46H248.717C248.748 743.46 248.773 743.485 248.773 743.517C248.773 743.548 248.748 743.573 248.717 743.573H246.045C246.014 743.573 245.989 743.548 245.989 743.517Z" fill="#363636"/>
<path d="M248.612 743.517C248.612 743.876 248.903 744.167 249.263 744.167C249.622 744.167 249.913 743.876 249.913 743.517C249.913 743.157 249.622 742.866 249.263 742.866C248.903 742.866 248.612 743.157 248.612 743.517Z" fill="#F66867"/>
<path d="M249.327 743.741C249.327 743.829 249.398 743.901 249.487 743.901C249.575 743.901 249.647 743.829 249.647 743.741C249.647 743.652 249.575 743.581 249.487 743.581C249.398 743.581 249.327 743.652 249.327 743.741Z" fill="#FFC6C4"/>
<path d="M27.667 772.168C24.517 772.168 21.94 774.616 21.73 777.713H33.604C33.394 774.616 30.817 772.168 27.667 772.168Z" fill="#D7BBA3"/>
<path d="M70.667 804.835C67.517 804.835 64.94 807.283 64.73 810.379H76.604C76.394 807.282 73.817 804.835 70.667 804.835Z" fill="#D7BBA3"/>
<path d="M123.333 787.835C120.183 787.835 117.606 790.283 117.396 793.379H129.27C129.06 790.282 126.484 787.835 123.333 787.835Z" fill="#D7BBA3"/>
<path d="M472.333 772.168C475.483 772.168 478.06 774.616 478.27 777.713H466.396C466.606 774.616 469.183 772.168 472.333 772.168Z" fill="#D7BBA3"/>
<path d="M429.333 804.835C432.483 804.835 435.06 807.283 435.27 810.379H423.396C423.606 807.282 426.183 804.835 429.333 804.835Z" fill="#D7BBA3"/>
<path d="M376.667 787.835C379.817 787.835 382.394 790.283 382.604 793.379H370.73C370.939 790.282 373.516 787.835 376.667 787.835Z" fill="#D7BBA3"/>
<path d="M383.516 767.522C381.316 762.476 383.238 756.679 387.772 754.026C388.26 754.156 388.873 754.119 388.809 754.999C388.783 755.358 388.583 755.742 388.771 756.054C388.937 756.328 389.299 756.369 389.597 756.469C390.401 756.739 390.923 757.715 390.7 758.532C390.639 758.756 390.53 758.985 390.592 759.213C390.759 759.828 391.7 759.559 392.247 759.875C393.219 760.436 392.365 762.351 393.338 762.907C393.673 763.099 394.081 763.017 394.442 762.914C395.113 762.724 395.798 762.462 396.241 761.921C396.683 761.38 396.781 760.486 396.283 759.965C395.994 759.663 395.546 759.514 395.36 759.139C394.938 758.285 396.276 757.327 395.821 756.491C395.551 755.996 394.801 755.926 394.562 755.415C394.301 754.856 394.815 754.389 394.775 753.851C394.738 753.345 394.319 753.178 394.225 752.783C394.034 751.975 394.343 751.793 395.252 751.703C396.677 751.563 398.718 752.129 399.979 752.878C401.435 753.742 402.594 755.067 403.503 756.515C405.99 760.479 406.287 763.844 404.413 768.003C403.127 770.858 400.633 773.062 397.674 773.967C393.512 775.241 388.759 773.991 385.705 770.807C384.81 769.873 384.061 768.773 383.516 767.522Z" fill="#DD2F2A"/>
<path d="M404.115 773.086C403.3 773.406 402.846 774.186 403.417 775.505C403.917 776.662 405.408 776.897 406.527 776.874C408.071 776.841 408.685 775.354 407.765 774.118C406.981 773.063 405.218 772.654 404.115 773.086Z" fill="#DD2F2A"/>
<path d="M401.477 770.715C400.607 770.618 399.842 771.097 399.733 772.53C399.637 773.786 400.847 774.689 401.848 775.189C403.23 775.879 404.465 774.848 404.227 773.326C404.024 772.028 402.654 770.845 401.477 770.715Z" fill="#DD2F2A"/>
<path d="M458.817 762.756C464.206 763.878 467.825 768.798 467.368 774.031C466.98 774.354 466.656 774.876 465.974 774.315C465.697 774.086 465.499 773.701 465.136 773.675C464.816 773.651 464.574 773.923 464.319 774.108C463.634 774.608 462.536 774.47 461.998 773.816C461.85 773.637 461.727 773.415 461.504 773.334C460.906 773.114 460.582 774.038 460.008 774.301C458.988 774.77 457.92 772.965 456.903 773.438C456.553 773.601 456.384 773.982 456.259 774.336C456.027 774.992 455.843 775.703 456.03 776.377C456.216 777.05 456.888 777.648 457.602 777.542C458.015 777.481 458.396 777.202 458.809 777.267C459.749 777.417 459.758 779.062 460.703 779.174C461.263 779.24 461.754 778.668 462.309 778.769C462.916 778.879 463 779.568 463.462 779.847C463.896 780.109 464.274 779.864 464.651 780.015C465.421 780.326 465.391 780.685 464.939 781.477C464.23 782.721 462.587 784.06 461.248 784.656C459.701 785.344 457.95 785.524 456.243 785.428C451.57 785.166 448.653 783.463 446.343 779.53C444.757 776.83 444.4 773.521 445.372 770.583C446.739 766.451 450.507 763.294 454.87 762.644C456.151 762.453 457.481 762.478 458.817 762.756Z" fill="#DD2F2A"/>
<path d="M442.368 776.348C442.578 775.498 442.204 774.677 440.798 774.379C439.565 774.119 438.512 775.199 437.883 776.126C437.017 777.404 437.876 778.766 439.416 778.73C440.73 778.699 442.083 777.497 442.368 776.348Z" fill="#DD2F2A"/>
<path d="M445.828 775.567C446.41 774.912 446.461 774.011 445.355 773.094C444.385 772.29 442.95 772.755 441.963 773.283C440.601 774.011 440.728 775.616 442.107 776.301C443.284 776.885 445.042 776.451 445.828 775.567Z" fill="#DD2F2A"/>
<path d="M440.778 789.089C440.382 786.994 438.86 786.026 437.942 785.623C437.513 785.435 437.02 785.472 436.633 785.737C436.151 786.068 435.451 786.63 434.833 787.437C433.76 788.841 435.741 789.336 437.228 790.574C438.714 791.813 437.723 794.785 439.002 794.702C440.282 794.62 441.355 792.144 440.778 789.089Z" fill="#DD2F2A"/>
<path d="M435.321 792.57C435.303 790.268 433.873 788.945 432.976 788.341C432.556 788.058 432.025 788.002 431.563 788.209C430.986 788.468 430.135 788.93 429.323 789.669C427.912 790.953 429.922 791.862 431.261 793.464C432.602 795.067 430.976 798.034 432.351 798.192C433.727 798.351 435.345 795.927 435.321 792.57Z" fill="#DD2F2A"/>
<path d="M444.876 783.946C443.771 782.21 442.06 781.887 441.094 781.855C440.642 781.84 440.213 782.049 439.962 782.425C439.648 782.894 439.222 783.648 438.957 784.593C438.497 786.235 440.451 785.97 442.226 786.548C444.001 787.126 444.177 790.145 445.294 789.613C446.411 789.08 446.487 786.476 444.876 783.946Z" fill="#DD2F2A"/>
<path d="M404.902 789.089C405.299 786.994 406.82 786.026 407.738 785.623C408.167 785.435 408.66 785.472 409.047 785.737C409.529 786.068 410.229 786.63 410.847 787.437C411.92 788.841 409.939 789.336 408.452 790.574C406.966 791.813 407.957 794.785 406.677 794.702C405.397 794.62 404.324 792.144 404.902 789.089Z" fill="#DD2F2A"/>
<path d="M410.359 792.57C410.376 790.268 411.806 788.945 412.704 788.341C413.123 788.058 413.654 788.002 414.116 788.209C414.692 788.468 415.544 788.93 416.356 789.669C417.768 790.953 415.758 791.862 414.418 793.464C413.077 795.067 414.703 798.034 413.328 798.192C411.952 798.351 410.334 795.927 410.359 792.57Z" fill="#DD2F2A"/>
<path d="M400.803 783.946C401.908 782.21 403.619 781.887 404.585 781.855C405.037 781.84 405.466 782.049 405.717 782.425C406.031 782.894 406.457 783.648 406.722 784.593C407.182 786.235 405.228 785.97 403.453 786.548C401.678 787.126 401.502 790.145 400.385 789.613C399.268 789.081 399.192 786.476 400.803 783.946Z" fill="#DD2F2A"/>
<path d="M441.153 778.513C438.845 769.139 422.84 768.707 422.84 768.707C422.84 768.707 406.834 769.139 404.527 778.513C403.373 783.271 404.815 791.779 422.84 791.49C440.864 791.778 442.306 783.271 441.153 778.513Z" fill="#F7514D"/>
<path opacity="0.5" d="M441.152 778.512C440.67 776.552 439.583 774.987 438.174 773.731C438.338 774.13 438.484 774.541 438.592 774.978C439.745 779.737 438.303 788.244 420.278 787.955C412.225 788.084 407.489 786.455 404.808 784.191C406.287 788.051 410.962 791.68 422.839 791.49C440.864 791.778 442.306 783.271 441.152 778.512Z" fill="#F7514D"/>
<path d="M429.742 773.986C432.007 773.986 433.844 772.15 433.844 769.885C433.844 767.62 432.007 765.784 429.742 765.784C427.478 765.784 425.641 767.62 425.641 769.885C425.641 772.15 427.478 773.986 429.742 773.986Z" fill="#DD2F2A"/>
<path d="M427.08 769.885C427.08 771.355 428.273 772.548 429.743 772.548C431.213 772.548 432.406 771.355 432.406 769.885C432.406 768.415 431.213 767.223 429.743 767.223C428.272 767.223 427.08 768.415 427.08 769.885Z" fill="#231F20"/>
<path d="M429.809 768.707C429.809 769.227 430.23 769.648 430.75 769.648C431.27 769.648 431.691 769.227 431.691 768.707C431.691 768.187 431.27 767.766 430.75 767.766C430.23 767.766 429.809 768.187 429.809 768.707Z" fill="white"/>
<path d="M410.699 769.885C410.699 772.15 412.535 773.986 414.8 773.986C417.065 773.986 418.901 772.15 418.901 769.885C418.901 767.62 417.065 765.784 414.8 765.784C412.535 765.784 410.699 767.621 410.699 769.885Z" fill="#DD2F2A"/>
<path d="M412.137 769.885C412.137 771.355 413.329 772.548 414.8 772.548C416.27 772.548 417.463 771.355 417.463 769.885C417.463 768.415 416.27 767.223 414.8 767.223C413.329 767.223 412.137 768.415 412.137 769.885Z" fill="#231F20"/>
<path d="M414.866 768.707C414.866 769.227 415.287 769.648 415.807 769.648C416.327 769.648 416.748 769.227 416.748 768.707C416.748 768.187 416.327 767.766 415.807 767.766C415.287 767.766 414.866 768.187 414.866 768.707Z" fill="white"/>
<path opacity="0.5" d="M458.078 783.187C449.533 781.464 446.776 773.402 445.836 769.427C445.663 769.804 445.503 770.187 445.372 770.583C444.401 773.521 444.757 776.83 446.344 779.53C448.654 783.463 451.571 785.166 456.244 785.428C457.95 785.524 459.702 785.344 461.248 784.656C462.465 784.115 463.923 782.962 464.713 781.823C463.045 782.503 460.047 783.545 458.078 783.187Z" fill="#DD2F2A"/>
<path opacity="0.5" d="M404.413 768.002C405.668 765.217 405.944 762.788 405.246 760.297C404.265 763.429 401.366 769.857 394.114 769.648C388.689 769.492 385.092 767.599 383.011 766.069C383.147 766.558 383.307 767.044 383.515 767.522C384.06 768.773 384.809 769.872 385.705 770.806C388.759 773.991 393.512 775.241 397.674 773.967C400.633 773.062 403.127 770.858 404.413 768.002Z" fill="#DD2F2A"/>
<path opacity="0.5" d="M410.371 773.116C409.69 773.294 409.035 773.851 408.505 774.291C407.053 775.499 405.948 777.171 405.621 779.05C405.235 781.266 407.071 780.043 407.99 778.73C408.804 777.567 409.219 775.993 410.539 775.294C411.109 774.992 411.502 774.595 411.441 773.913C411.385 773.293 411.028 772.947 410.371 773.116Z" fill="white"/>
<path opacity="0.5" d="M448.984 767.294C449.385 766.696 450.007 766.131 450.344 765.859C451.962 764.554 453.987 763.474 456.121 763.561C460.007 763.722 460.567 764.656 459.687 765.39C459.038 765.931 457.704 765.745 456.922 765.859C455.465 766.07 454.04 766.771 452.842 767.613C451.886 768.285 450.728 769.569 449.414 769.145C448.335 768.796 448.496 768.021 448.984 767.294Z" fill="white"/>
<path opacity="0.5" d="M386.494 755.735C385.774 756.344 385.166 757.351 384.689 758.134C384.001 759.264 383.424 760.545 383.369 761.886C383.496 763.241 385.021 762.564 385.571 760.743C386.122 758.922 387.096 757.227 387.561 756.634C388.048 756.014 387.225 755.155 386.581 755.664C386.552 755.687 386.523 755.71 386.494 755.735Z" fill="white"/>
</svg>
