<svg width="120" height="33" viewBox="0 0 120 33" fill="none" xmlns="http://www.w3.org/2000/svg">
<path d="M97.5651 32.5854C96.5388 32.5854 95.6332 32.1175 94.8484 31.1817C94.0937 30.246 93.49 28.948 93.0372 27.2877C92.6146 25.6275 92.4033 23.7107 92.4033 21.5373C92.4033 19.3639 92.6146 17.4622 93.0372 15.8321C93.49 14.1719 94.0937 12.8739 94.8484 11.9381C95.6332 11.0024 96.5388 10.5345 97.5651 10.5345C98.5915 10.5345 99.4819 11.0175 100.237 11.9834C101.021 12.9192 101.64 14.2172 102.093 15.8774C102.546 17.5075 102.772 19.3941 102.772 21.5373C102.772 23.6805 102.546 25.5822 102.093 27.2424C101.64 28.9027 101.021 30.2158 100.237 31.1817C99.4819 32.1175 98.5915 32.5854 97.5651 32.5854ZM97.5651 31.6345C98.3802 31.6345 99.1046 31.1968 99.7385 30.3214C100.372 29.446 100.871 28.2537 101.233 26.7444C101.595 25.2049 101.776 23.4692 101.776 21.5373C101.776 19.6054 101.595 17.8848 101.233 16.3755C100.871 14.8662 100.372 13.6738 99.7385 12.7984C99.1046 11.923 98.3802 11.4853 97.5651 11.4853C96.7803 11.4853 96.0709 11.923 95.437 12.7984C94.8031 13.6738 94.305 14.8662 93.9428 16.3755C93.5806 17.8848 93.3995 19.6054 93.3995 21.5373C93.3995 23.4692 93.5806 25.2049 93.9428 26.7444C94.305 28.2537 94.8031 29.446 95.437 30.3214C96.0709 31.1968 96.7803 31.6345 97.5651 31.6345Z" fill="#363636"/>
<path d="M89.267 32.5854C87.9086 32.5854 86.9276 32.2835 86.3239 31.6798C85.7202 31.0761 85.4183 30.0195 85.4183 28.5102V12.3909H82.3393C82.0375 12.3909 81.8865 12.2249 81.8865 11.8928C81.8865 11.591 82.0375 11.4401 82.3393 11.4401H85.4183V5.73489C85.4183 5.43303 85.5843 5.2821 85.9164 5.2821C86.2182 5.2821 86.3692 5.43303 86.3692 5.73489V11.4401H89.4481C89.75 11.4401 89.9009 11.591 89.9009 11.8928C89.9009 12.2249 89.75 12.3909 89.4481 12.3909H86.3692V28.465C86.3692 29.6724 86.5805 30.5025 87.0031 30.9553C87.4257 31.4081 88.1803 31.6345 89.267 31.6345C89.5991 31.6345 89.7651 31.7854 89.7651 32.0873C89.7651 32.4193 89.5991 32.5854 89.267 32.5854Z" fill="#363636"/>
<path d="M52.1075 32.5854C51.8056 32.5854 51.6547 32.4344 51.6547 32.1326V11.4401C51.6547 11.1382 51.8056 10.9873 52.1075 10.9873C52.4395 10.9873 52.6055 11.1382 52.6055 11.4401V13.2512C53.2092 12.3456 53.8582 11.7117 54.5525 11.3495C55.2468 10.9571 56.0014 10.7609 56.8165 10.7609C59.3219 10.7609 60.5746 12.5418 60.5746 16.1038C60.5746 16.466 60.4237 16.6471 60.1218 16.6471C59.7898 16.6471 59.6238 16.466 59.6238 16.1038C59.6238 14.4737 59.3823 13.3418 58.8993 12.7079C58.4163 12.0438 57.722 11.7117 56.8165 11.7117C55.8807 11.7117 55.0506 11.9985 54.3261 12.572C53.6318 13.1154 53.0583 13.8097 52.6055 14.6549V32.1326C52.6055 32.4344 52.4395 32.5854 52.1075 32.5854Z" fill="#363636"/>
<path d="M43.0899 32.5854C42.0636 32.5854 41.1429 32.1175 40.3279 31.1817C39.543 30.2158 38.9242 28.9027 38.4714 27.2424C38.0488 25.5822 37.8375 23.6805 37.8375 21.5373C37.8375 19.3941 38.0488 17.4924 38.4714 15.8321C38.9242 14.1719 39.5279 12.8739 40.2826 11.9381C41.0674 11.0024 41.973 10.5345 42.9993 10.5345C43.9351 10.5345 44.735 10.9269 45.3991 11.7117C46.0934 12.4664 46.6217 13.5229 46.9839 14.8813C47.3763 16.2095 47.5725 17.7338 47.5725 19.4545C47.2262 20.0544 40.4472 24.0721 39.0452 24.9248C39.377 26.7444 39.0452 24.9248 39.377 26.7444C39.7392 28.2537 40.2373 29.446 40.8712 30.3214C41.5353 31.1968 42.2749 31.6345 43.0899 31.6345C43.8747 31.6345 44.5388 31.3025 45.0822 30.6384C45.6557 29.9743 46.1085 29.0989 46.4405 28.0122C46.5311 27.7405 46.6971 27.6047 46.9386 27.6047C47.1499 27.6047 47.2857 27.6952 47.3461 27.8764C47.4065 28.0273 47.4065 28.1933 47.3461 28.3744C46.9235 29.6724 46.3651 30.6987 45.6708 31.4534C44.9765 32.208 44.1162 32.5854 43.0899 32.5854ZM42.9993 11.4853C41.973 11.4853 41.0825 12.2098 40.3279 13.6587C38.4714 15.8321 38.4262 21.564 39.0452 24.0006L46.6217 19.2281C46.5613 17.0245 46.1991 15.1831 45.535 13.704C44.9011 12.2249 44.0558 11.4853 42.9993 11.4853Z" fill="#363636"/>
<path d="M67.6472 32.5854C66.6209 32.5854 65.7002 32.1175 64.8852 31.1817C64.1003 30.2158 63.4815 28.9027 63.0287 27.2424C62.6061 25.5822 62.3948 23.6805 62.3948 21.5373C62.3948 19.3941 62.6061 17.4924 63.0287 15.8321C63.4815 14.1719 64.0853 12.8739 64.8399 11.9381C65.6247 11.0024 66.5303 10.5345 67.5566 10.5345C68.4924 10.5345 69.2923 10.9269 69.9564 11.7117C70.6507 12.4664 71.179 13.5229 71.5412 14.8813C71.9336 16.2095 72.1298 17.7338 72.1298 19.4545C71.7835 20.0544 65.0045 24.0721 63.6026 24.9248C63.9343 26.7444 63.6026 24.9248 63.9343 26.7444C64.2966 28.2537 64.7946 29.446 65.4285 30.3214C66.0926 31.1968 66.8322 31.6345 67.6472 31.6345C68.432 31.6345 69.0961 31.3025 69.6395 30.6384C70.213 29.9743 70.6658 29.0989 70.9979 28.0122C71.0884 27.7405 71.2544 27.6047 71.4959 27.6047C71.7072 27.6047 71.8431 27.6952 71.9034 27.8764C71.9638 28.0273 71.9638 28.1933 71.9034 28.3744C71.4808 29.6724 70.9224 30.6987 70.2281 31.4534C69.5338 32.208 68.6735 32.5854 67.6472 32.5854ZM67.5566 11.4853C66.5303 11.4853 65.6398 12.2098 64.8852 13.6587C63.0287 15.8321 62.9835 21.564 63.6026 24.0006L71.179 19.2281C71.1186 17.0245 70.7564 15.1831 70.0923 13.704C69.4584 12.2249 68.6132 11.4853 67.5566 11.4853Z" fill="#363636"/>
<path d="M25.3115 32.5853C25.0096 32.5853 24.8587 32.4344 24.8587 32.1325V0.754184C24.8587 0.452322 25.0096 0.301392 25.3115 0.301392C25.6435 0.301392 25.8096 0.452322 25.8096 0.754184V13.2512C26.4133 12.3456 27.0623 11.7117 27.7566 11.3495C28.4508 10.9571 29.2055 10.7608 30.0205 10.7608C32.526 10.7608 33.7787 12.4362 33.7787 15.7868V32.1325C33.7787 32.4344 33.6126 32.5853 33.2806 32.5853C32.9787 32.5853 32.8278 32.4344 32.8278 32.1325V15.7868C32.8278 14.3077 32.5863 13.2663 32.1033 12.6626C31.6204 12.0287 30.9261 11.7117 30.0205 11.7117C29.0847 11.7117 28.2546 11.9985 27.5302 12.572C26.8359 13.1154 26.2624 13.8096 25.8096 14.6548V32.1325C25.8096 32.4344 25.6435 32.5853 25.3115 32.5853Z" fill="#363636"/>
<path d="M2.528 32.5854C2.22614 32.5854 2.07521 32.4344 2.07521 32.1326L-0.00762939 1.79563C-0.00762939 1.49377 0.143301 1.34283 0.445161 1.34283C0.777207 1.34283 0.94323 1.49377 0.94323 1.79563L2.93551 31.0006C4.47499 29.3102 5.78809 27.665 6.87478 26.0652C7.99166 24.4351 8.88215 22.8655 9.54624 21.3562C8.61048 19.0922 8.14259 16.8735 8.14259 14.7001C8.14259 13.5229 8.30862 12.5871 8.64066 11.8928C8.97271 11.1986 9.44059 10.8514 10.0443 10.8514C10.648 10.8514 11.1159 11.1986 11.448 11.8928C11.78 12.5871 11.946 13.5229 11.946 14.7001C11.946 16.8735 11.4781 19.0922 10.5424 21.3562C11.2065 22.8655 12.0819 24.4351 13.1686 26.0652C14.2854 27.665 15.6136 29.3102 17.1531 31.0006L19.1454 1.79563C19.1454 1.49377 19.3114 1.34283 19.6435 1.34283C19.9453 1.34283 20.0963 1.49377 20.0963 1.79563L18.0134 32.1326C18.0134 32.4344 17.8625 32.5854 17.5606 32.5854C17.4097 32.5854 17.2739 32.525 17.1531 32.4042C15.5231 30.6233 14.1194 28.9178 12.9422 27.2877C11.7649 25.6577 10.799 24.0578 10.0443 22.4881C9.28966 24.0578 8.32371 25.6577 7.14646 27.2877C5.9692 28.9178 4.56555 30.6233 2.93551 32.4042C2.81476 32.525 2.67893 32.5854 2.528 32.5854ZM9.09345 14.7001C9.09345 16.4509 9.41041 18.2319 10.0443 20.0431C10.6782 18.2319 10.9952 16.4509 10.9952 14.7001C10.9952 13.8248 10.9046 13.1154 10.7235 12.572C10.5424 12.0287 10.316 11.757 10.0443 11.757C9.77264 11.757 9.54624 12.0287 9.36513 12.572C9.18401 13.1154 9.09345 13.8248 9.09345 14.7001Z" fill="#363636"/>
<path d="M116.156 32.5854C115.982 32.5854 115.842 32.445 115.842 32.2713V17.3837C115.842 17.2104 115.982 17.0697 116.156 17.0697C116.329 17.0697 116.47 17.2104 116.47 17.3837V32.2713C116.47 32.445 116.329 32.5854 116.156 32.5854Z" fill="#363636"/>
<path d="M116.156 17.9665C118.159 17.9665 119.782 16.3428 119.782 14.3398C119.782 12.3369 118.159 10.7132 116.156 10.7132C114.153 10.7132 112.529 12.3369 112.529 14.3398C112.529 16.3428 114.153 17.9665 116.156 17.9665Z" fill="#F66867"/>
<path d="M117.405 13.9832C117.899 13.9832 118.298 13.5833 118.298 13.0901C118.298 12.5968 117.899 12.197 117.405 12.197C116.912 12.197 116.512 12.5968 116.512 13.0901C116.512 13.5833 116.912 13.9832 117.405 13.9832Z" fill="#FFC6C4"/>
</svg>
